<?xml version="1.0" encoding="utf-8" standalone="no"?>
<!DOCTYPE svg PUBLIC "-//W3C//DTD SVG 1.1//EN"
  "http://www.w3.org/Graphics/SVG/1.1/DTD/svg11.dtd">
<svg xmlns:xlink="http://www.w3.org/1999/xlink" width="460.8pt" height="345.6pt" viewBox="0 0 460.8 345.6" xmlns="http://www.w3.org/2000/svg" version="1.1">
 <metadata>
  <rdf:RDF xmlns:dc="http://purl.org/dc/elements/1.1/" xmlns:cc="http://creativecommons.org/ns#" xmlns:rdf="http://www.w3.org/1999/02/22-rdf-syntax-ns#">
   <cc:Work>
    <dc:type rdf:resource="http://purl.org/dc/dcmitype/StillImage"/>
    <dc:date>2025-04-07T15:52:41.321572</dc:date>
    <dc:format>image/svg+xml</dc:format>
    <dc:creator>
     <cc:Agent>
      <dc:title>Matplotlib v3.8.3, https://matplotlib.org/</dc:title>
     </cc:Agent>
    </dc:creator>
   </cc:Work>
  </rdf:RDF>
 </metadata>
 <defs>
  <style type="text/css">*{stroke-linejoin: round; stroke-linecap: butt}</style>
 </defs>
 <g id="figure_1">
  <g id="patch_1">
   <path d="M 0 345.6 
L 460.8 345.6 
L 460.8 0 
L 0 0 
z
" style="fill: #ffffff"/>
  </g>
  <g id="axes_1">
   <g id="patch_2">
    <path d="M 57.6 307.584 
L 414.72 307.584 
L 414.72 41.472 
L 57.6 41.472 
z
" style="fill: #ffffff"/>
   </g>
   <g id="patch_3">
    <path d="M 73.832727 307.584 
L 74.331429 307.584 
L 74.331429 291.744 
L 73.832727 291.744 
z
" clip-path="url(#p165f65cf81)" style="fill: #1f77b4"/>
   </g>
   <g id="patch_4">
    <path d="M 76.94961 307.584 
L 77.448312 307.584 
L 77.448312 291.744 
L 76.94961 291.744 
z
" clip-path="url(#p165f65cf81)" style="fill: #1f77b4"/>
   </g>
   <g id="patch_5">
    <path d="M 80.68987 307.584 
L 81.188571 307.584 
L 81.188571 291.744 
L 80.68987 291.744 
z
" clip-path="url(#p165f65cf81)" style="fill: #1f77b4"/>
   </g>
   <g id="patch_6">
    <path d="M 84.43013 307.584 
L 84.928831 307.584 
L 84.928831 291.744 
L 84.43013 291.744 
z
" clip-path="url(#p165f65cf81)" style="fill: #1f77b4"/>
   </g>
   <g id="patch_7">
    <path d="M 85.053506 307.584 
L 85.552208 307.584 
L 85.552208 291.744 
L 85.053506 291.744 
z
" clip-path="url(#p165f65cf81)" style="fill: #1f77b4"/>
   </g>
   <g id="patch_8">
    <path d="M 86.923636 307.584 
L 87.422338 307.584 
L 87.422338 291.744 
L 86.923636 291.744 
z
" clip-path="url(#p165f65cf81)" style="fill: #1f77b4"/>
   </g>
   <g id="patch_9">
    <path d="M 87.547013 307.584 
L 88.045714 307.584 
L 88.045714 291.744 
L 87.547013 291.744 
z
" clip-path="url(#p165f65cf81)" style="fill: #1f77b4"/>
   </g>
   <g id="patch_10">
    <path d="M 88.17039 307.584 
L 88.669091 307.584 
L 88.669091 275.904 
L 88.17039 275.904 
z
" clip-path="url(#p165f65cf81)" style="fill: #1f77b4"/>
   </g>
   <g id="patch_11">
    <path d="M 89.417143 307.584 
L 89.915844 307.584 
L 89.915844 291.744 
L 89.417143 291.744 
z
" clip-path="url(#p165f65cf81)" style="fill: #1f77b4"/>
   </g>
   <g id="patch_12">
    <path d="M 90.663896 307.584 
L 91.162597 307.584 
L 91.162597 291.744 
L 90.663896 291.744 
z
" clip-path="url(#p165f65cf81)" style="fill: #1f77b4"/>
   </g>
   <g id="patch_13">
    <path d="M 91.287273 307.584 
L 91.785974 307.584 
L 91.785974 291.744 
L 91.287273 291.744 
z
" clip-path="url(#p165f65cf81)" style="fill: #1f77b4"/>
   </g>
   <g id="patch_14">
    <path d="M 91.910649 307.584 
L 92.409351 307.584 
L 92.409351 275.904 
L 91.910649 275.904 
z
" clip-path="url(#p165f65cf81)" style="fill: #1f77b4"/>
   </g>
   <g id="patch_15">
    <path d="M 93.157403 307.584 
L 93.656104 307.584 
L 93.656104 275.904 
L 93.157403 275.904 
z
" clip-path="url(#p165f65cf81)" style="fill: #1f77b4"/>
   </g>
   <g id="patch_16">
    <path d="M 93.780779 307.584 
L 94.279481 307.584 
L 94.279481 260.064 
L 93.780779 260.064 
z
" clip-path="url(#p165f65cf81)" style="fill: #1f77b4"/>
   </g>
   <g id="patch_17">
    <path d="M 95.027532 307.584 
L 95.526234 307.584 
L 95.526234 291.744 
L 95.027532 291.744 
z
" clip-path="url(#p165f65cf81)" style="fill: #1f77b4"/>
   </g>
   <g id="patch_18">
    <path d="M 96.274286 307.584 
L 96.772987 307.584 
L 96.772987 291.744 
L 96.274286 291.744 
z
" clip-path="url(#p165f65cf81)" style="fill: #1f77b4"/>
   </g>
   <g id="patch_19">
    <path d="M 96.897662 307.584 
L 97.396364 307.584 
L 97.396364 291.744 
L 96.897662 291.744 
z
" clip-path="url(#p165f65cf81)" style="fill: #1f77b4"/>
   </g>
   <g id="patch_20">
    <path d="M 97.521039 307.584 
L 98.01974 307.584 
L 98.01974 275.904 
L 97.521039 275.904 
z
" clip-path="url(#p165f65cf81)" style="fill: #1f77b4"/>
   </g>
   <g id="patch_21">
    <path d="M 98.144416 307.584 
L 98.643117 307.584 
L 98.643117 291.744 
L 98.144416 291.744 
z
" clip-path="url(#p165f65cf81)" style="fill: #1f77b4"/>
   </g>
   <g id="patch_22">
    <path d="M 98.767792 307.584 
L 99.266494 307.584 
L 99.266494 260.064 
L 98.767792 260.064 
z
" clip-path="url(#p165f65cf81)" style="fill: #1f77b4"/>
   </g>
   <g id="patch_23">
    <path d="M 99.391169 307.584 
L 99.88987 307.584 
L 99.88987 275.904 
L 99.391169 275.904 
z
" clip-path="url(#p165f65cf81)" style="fill: #1f77b4"/>
   </g>
   <g id="patch_24">
    <path d="M 100.014545 307.584 
L 100.513247 307.584 
L 100.513247 275.904 
L 100.014545 275.904 
z
" clip-path="url(#p165f65cf81)" style="fill: #1f77b4"/>
   </g>
   <g id="patch_25">
    <path d="M 101.261299 307.584 
L 101.76 307.584 
L 101.76 275.904 
L 101.261299 275.904 
z
" clip-path="url(#p165f65cf81)" style="fill: #1f77b4"/>
   </g>
   <g id="patch_26">
    <path d="M 101.884675 307.584 
L 102.383377 307.584 
L 102.383377 275.904 
L 101.884675 275.904 
z
" clip-path="url(#p165f65cf81)" style="fill: #1f77b4"/>
   </g>
   <g id="patch_27">
    <path d="M 102.508052 307.584 
L 103.006753 307.584 
L 103.006753 228.384 
L 102.508052 228.384 
z
" clip-path="url(#p165f65cf81)" style="fill: #1f77b4"/>
   </g>
   <g id="patch_28">
    <path d="M 103.754805 307.584 
L 104.253506 307.584 
L 104.253506 228.384 
L 103.754805 228.384 
z
" clip-path="url(#p165f65cf81)" style="fill: #1f77b4"/>
   </g>
   <g id="patch_29">
    <path d="M 105.001558 307.584 
L 105.50026 307.584 
L 105.50026 275.904 
L 105.001558 275.904 
z
" clip-path="url(#p165f65cf81)" style="fill: #1f77b4"/>
   </g>
   <g id="patch_30">
    <path d="M 105.624935 307.584 
L 106.123636 307.584 
L 106.123636 275.904 
L 105.624935 275.904 
z
" clip-path="url(#p165f65cf81)" style="fill: #1f77b4"/>
   </g>
   <g id="patch_31">
    <path d="M 106.248312 307.584 
L 106.747013 307.584 
L 106.747013 228.384 
L 106.248312 228.384 
z
" clip-path="url(#p165f65cf81)" style="fill: #1f77b4"/>
   </g>
   <g id="patch_32">
    <path d="M 106.871688 307.584 
L 107.37039 307.584 
L 107.37039 275.904 
L 106.871688 275.904 
z
" clip-path="url(#p165f65cf81)" style="fill: #1f77b4"/>
   </g>
   <g id="patch_33">
    <path d="M 107.495065 307.584 
L 107.993766 307.584 
L 107.993766 228.384 
L 107.495065 228.384 
z
" clip-path="url(#p165f65cf81)" style="fill: #1f77b4"/>
   </g>
   <g id="patch_34">
    <path d="M 108.118442 307.584 
L 108.617143 307.584 
L 108.617143 275.904 
L 108.118442 275.904 
z
" clip-path="url(#p165f65cf81)" style="fill: #1f77b4"/>
   </g>
   <g id="patch_35">
    <path d="M 108.741818 307.584 
L 109.240519 307.584 
L 109.240519 275.904 
L 108.741818 275.904 
z
" clip-path="url(#p165f65cf81)" style="fill: #1f77b4"/>
   </g>
   <g id="patch_36">
    <path d="M 109.365195 307.584 
L 109.863896 307.584 
L 109.863896 244.224 
L 109.365195 244.224 
z
" clip-path="url(#p165f65cf81)" style="fill: #1f77b4"/>
   </g>
   <g id="patch_37">
    <path d="M 109.988571 307.584 
L 110.487273 307.584 
L 110.487273 244.224 
L 109.988571 244.224 
z
" clip-path="url(#p165f65cf81)" style="fill: #1f77b4"/>
   </g>
   <g id="patch_38">
    <path d="M 110.611948 307.584 
L 111.110649 307.584 
L 111.110649 260.064 
L 110.611948 260.064 
z
" clip-path="url(#p165f65cf81)" style="fill: #1f77b4"/>
   </g>
   <g id="patch_39">
    <path d="M 111.235325 307.584 
L 111.734026 307.584 
L 111.734026 212.544 
L 111.235325 212.544 
z
" clip-path="url(#p165f65cf81)" style="fill: #1f77b4"/>
   </g>
   <g id="patch_40">
    <path d="M 111.858701 307.584 
L 112.357403 307.584 
L 112.357403 260.064 
L 111.858701 260.064 
z
" clip-path="url(#p165f65cf81)" style="fill: #1f77b4"/>
   </g>
   <g id="patch_41">
    <path d="M 112.482078 307.584 
L 112.980779 307.584 
L 112.980779 228.384 
L 112.482078 228.384 
z
" clip-path="url(#p165f65cf81)" style="fill: #1f77b4"/>
   </g>
   <g id="patch_42">
    <path d="M 113.105455 307.584 
L 113.604156 307.584 
L 113.604156 244.224 
L 113.105455 244.224 
z
" clip-path="url(#p165f65cf81)" style="fill: #1f77b4"/>
   </g>
   <g id="patch_43">
    <path d="M 113.728831 307.584 
L 114.227532 307.584 
L 114.227532 260.064 
L 113.728831 260.064 
z
" clip-path="url(#p165f65cf81)" style="fill: #1f77b4"/>
   </g>
   <g id="patch_44">
    <path d="M 114.352208 307.584 
L 114.850909 307.584 
L 114.850909 212.544 
L 114.352208 212.544 
z
" clip-path="url(#p165f65cf81)" style="fill: #1f77b4"/>
   </g>
   <g id="patch_45">
    <path d="M 114.975584 307.584 
L 115.474286 307.584 
L 115.474286 260.064 
L 114.975584 260.064 
z
" clip-path="url(#p165f65cf81)" style="fill: #1f77b4"/>
   </g>
   <g id="patch_46">
    <path d="M 115.598961 307.584 
L 116.097662 307.584 
L 116.097662 275.904 
L 115.598961 275.904 
z
" clip-path="url(#p165f65cf81)" style="fill: #1f77b4"/>
   </g>
   <g id="patch_47">
    <path d="M 116.222338 307.584 
L 116.721039 307.584 
L 116.721039 212.544 
L 116.222338 212.544 
z
" clip-path="url(#p165f65cf81)" style="fill: #1f77b4"/>
   </g>
   <g id="patch_48">
    <path d="M 116.845714 307.584 
L 117.344416 307.584 
L 117.344416 244.224 
L 116.845714 244.224 
z
" clip-path="url(#p165f65cf81)" style="fill: #1f77b4"/>
   </g>
   <g id="patch_49">
    <path d="M 117.469091 307.584 
L 117.967792 307.584 
L 117.967792 212.544 
L 117.469091 212.544 
z
" clip-path="url(#p165f65cf81)" style="fill: #1f77b4"/>
   </g>
   <g id="patch_50">
    <path d="M 118.092468 307.584 
L 118.591169 307.584 
L 118.591169 228.384 
L 118.092468 228.384 
z
" clip-path="url(#p165f65cf81)" style="fill: #1f77b4"/>
   </g>
   <g id="patch_51">
    <path d="M 118.715844 307.584 
L 119.214545 307.584 
L 119.214545 212.544 
L 118.715844 212.544 
z
" clip-path="url(#p165f65cf81)" style="fill: #1f77b4"/>
   </g>
   <g id="patch_52">
    <path d="M 119.339221 307.584 
L 119.837922 307.584 
L 119.837922 275.904 
L 119.339221 275.904 
z
" clip-path="url(#p165f65cf81)" style="fill: #1f77b4"/>
   </g>
   <g id="patch_53">
    <path d="M 119.962597 307.584 
L 120.461299 307.584 
L 120.461299 244.224 
L 119.962597 244.224 
z
" clip-path="url(#p165f65cf81)" style="fill: #1f77b4"/>
   </g>
   <g id="patch_54">
    <path d="M 120.585974 307.584 
L 121.084675 307.584 
L 121.084675 244.224 
L 120.585974 244.224 
z
" clip-path="url(#p165f65cf81)" style="fill: #1f77b4"/>
   </g>
   <g id="patch_55">
    <path d="M 121.209351 307.584 
L 121.708052 307.584 
L 121.708052 260.064 
L 121.209351 260.064 
z
" clip-path="url(#p165f65cf81)" style="fill: #1f77b4"/>
   </g>
   <g id="patch_56">
    <path d="M 121.832727 307.584 
L 122.331429 307.584 
L 122.331429 260.064 
L 121.832727 260.064 
z
" clip-path="url(#p165f65cf81)" style="fill: #1f77b4"/>
   </g>
   <g id="patch_57">
    <path d="M 122.456104 307.584 
L 122.954805 307.584 
L 122.954805 244.224 
L 122.456104 244.224 
z
" clip-path="url(#p165f65cf81)" style="fill: #1f77b4"/>
   </g>
   <g id="patch_58">
    <path d="M 123.079481 307.584 
L 123.578182 307.584 
L 123.578182 180.864 
L 123.079481 180.864 
z
" clip-path="url(#p165f65cf81)" style="fill: #1f77b4"/>
   </g>
   <g id="patch_59">
    <path d="M 123.702857 307.584 
L 124.201558 307.584 
L 124.201558 212.544 
L 123.702857 212.544 
z
" clip-path="url(#p165f65cf81)" style="fill: #1f77b4"/>
   </g>
   <g id="patch_60">
    <path d="M 124.326234 307.584 
L 124.824935 307.584 
L 124.824935 196.704 
L 124.326234 196.704 
z
" clip-path="url(#p165f65cf81)" style="fill: #1f77b4"/>
   </g>
   <g id="patch_61">
    <path d="M 124.94961 307.584 
L 125.448312 307.584 
L 125.448312 212.544 
L 124.94961 212.544 
z
" clip-path="url(#p165f65cf81)" style="fill: #1f77b4"/>
   </g>
   <g id="patch_62">
    <path d="M 125.572987 307.584 
L 126.071688 307.584 
L 126.071688 180.864 
L 125.572987 180.864 
z
" clip-path="url(#p165f65cf81)" style="fill: #1f77b4"/>
   </g>
   <g id="patch_63">
    <path d="M 126.196364 307.584 
L 126.695065 307.584 
L 126.695065 212.544 
L 126.196364 212.544 
z
" clip-path="url(#p165f65cf81)" style="fill: #1f77b4"/>
   </g>
   <g id="patch_64">
    <path d="M 126.81974 307.584 
L 127.318442 307.584 
L 127.318442 228.384 
L 126.81974 228.384 
z
" clip-path="url(#p165f65cf81)" style="fill: #1f77b4"/>
   </g>
   <g id="patch_65">
    <path d="M 127.443117 307.584 
L 127.941818 307.584 
L 127.941818 260.064 
L 127.443117 260.064 
z
" clip-path="url(#p165f65cf81)" style="fill: #1f77b4"/>
   </g>
   <g id="patch_66">
    <path d="M 128.066494 307.584 
L 128.565195 307.584 
L 128.565195 244.224 
L 128.066494 244.224 
z
" clip-path="url(#p165f65cf81)" style="fill: #1f77b4"/>
   </g>
   <g id="patch_67">
    <path d="M 128.68987 307.584 
L 129.188571 307.584 
L 129.188571 275.904 
L 128.68987 275.904 
z
" clip-path="url(#p165f65cf81)" style="fill: #1f77b4"/>
   </g>
   <g id="patch_68">
    <path d="M 129.313247 307.584 
L 129.811948 307.584 
L 129.811948 196.704 
L 129.313247 196.704 
z
" clip-path="url(#p165f65cf81)" style="fill: #1f77b4"/>
   </g>
   <g id="patch_69">
    <path d="M 129.936623 307.584 
L 130.435325 307.584 
L 130.435325 133.344 
L 129.936623 133.344 
z
" clip-path="url(#p165f65cf81)" style="fill: #1f77b4"/>
   </g>
   <g id="patch_70">
    <path d="M 130.56 307.584 
L 131.058701 307.584 
L 131.058701 165.024 
L 130.56 165.024 
z
" clip-path="url(#p165f65cf81)" style="fill: #1f77b4"/>
   </g>
   <g id="patch_71">
    <path d="M 131.183377 307.584 
L 131.682078 307.584 
L 131.682078 212.544 
L 131.183377 212.544 
z
" clip-path="url(#p165f65cf81)" style="fill: #1f77b4"/>
   </g>
   <g id="patch_72">
    <path d="M 131.806753 307.584 
L 132.305455 307.584 
L 132.305455 149.184 
L 131.806753 149.184 
z
" clip-path="url(#p165f65cf81)" style="fill: #1f77b4"/>
   </g>
   <g id="patch_73">
    <path d="M 132.43013 307.584 
L 132.928831 307.584 
L 132.928831 180.864 
L 132.43013 180.864 
z
" clip-path="url(#p165f65cf81)" style="fill: #1f77b4"/>
   </g>
   <g id="patch_74">
    <path d="M 133.053506 307.584 
L 133.552208 307.584 
L 133.552208 228.384 
L 133.053506 228.384 
z
" clip-path="url(#p165f65cf81)" style="fill: #1f77b4"/>
   </g>
   <g id="patch_75">
    <path d="M 133.676883 307.584 
L 134.175584 307.584 
L 134.175584 165.024 
L 133.676883 165.024 
z
" clip-path="url(#p165f65cf81)" style="fill: #1f77b4"/>
   </g>
   <g id="patch_76">
    <path d="M 134.30026 307.584 
L 134.798961 307.584 
L 134.798961 101.664 
L 134.30026 101.664 
z
" clip-path="url(#p165f65cf81)" style="fill: #1f77b4"/>
   </g>
   <g id="patch_77">
    <path d="M 134.923636 307.584 
L 135.422338 307.584 
L 135.422338 228.384 
L 134.923636 228.384 
z
" clip-path="url(#p165f65cf81)" style="fill: #1f77b4"/>
   </g>
   <g id="patch_78">
    <path d="M 135.547013 307.584 
L 136.045714 307.584 
L 136.045714 180.864 
L 135.547013 180.864 
z
" clip-path="url(#p165f65cf81)" style="fill: #1f77b4"/>
   </g>
   <g id="patch_79">
    <path d="M 136.17039 307.584 
L 136.669091 307.584 
L 136.669091 149.184 
L 136.17039 149.184 
z
" clip-path="url(#p165f65cf81)" style="fill: #1f77b4"/>
   </g>
   <g id="patch_80">
    <path d="M 136.793766 307.584 
L 137.292468 307.584 
L 137.292468 196.704 
L 136.793766 196.704 
z
" clip-path="url(#p165f65cf81)" style="fill: #1f77b4"/>
   </g>
   <g id="patch_81">
    <path d="M 137.417143 307.584 
L 137.915844 307.584 
L 137.915844 228.384 
L 137.417143 228.384 
z
" clip-path="url(#p165f65cf81)" style="fill: #1f77b4"/>
   </g>
   <g id="patch_82">
    <path d="M 138.040519 307.584 
L 138.539221 307.584 
L 138.539221 180.864 
L 138.040519 180.864 
z
" clip-path="url(#p165f65cf81)" style="fill: #1f77b4"/>
   </g>
   <g id="patch_83">
    <path d="M 138.663896 307.584 
L 139.162597 307.584 
L 139.162597 244.224 
L 138.663896 244.224 
z
" clip-path="url(#p165f65cf81)" style="fill: #1f77b4"/>
   </g>
   <g id="patch_84">
    <path d="M 139.287273 307.584 
L 139.785974 307.584 
L 139.785974 54.144 
L 139.287273 54.144 
z
" clip-path="url(#p165f65cf81)" style="fill: #1f77b4"/>
   </g>
   <g id="patch_85">
    <path d="M 139.910649 307.584 
L 140.409351 307.584 
L 140.409351 133.344 
L 139.910649 133.344 
z
" clip-path="url(#p165f65cf81)" style="fill: #1f77b4"/>
   </g>
   <g id="patch_86">
    <path d="M 140.534026 307.584 
L 141.032727 307.584 
L 141.032727 260.064 
L 140.534026 260.064 
z
" clip-path="url(#p165f65cf81)" style="fill: #1f77b4"/>
   </g>
   <g id="patch_87">
    <path d="M 141.157403 307.584 
L 141.656104 307.584 
L 141.656104 212.544 
L 141.157403 212.544 
z
" clip-path="url(#p165f65cf81)" style="fill: #1f77b4"/>
   </g>
   <g id="patch_88">
    <path d="M 141.780779 307.584 
L 142.279481 307.584 
L 142.279481 196.704 
L 141.780779 196.704 
z
" clip-path="url(#p165f65cf81)" style="fill: #1f77b4"/>
   </g>
   <g id="patch_89">
    <path d="M 142.404156 307.584 
L 142.902857 307.584 
L 142.902857 228.384 
L 142.404156 228.384 
z
" clip-path="url(#p165f65cf81)" style="fill: #1f77b4"/>
   </g>
   <g id="patch_90">
    <path d="M 143.027532 307.584 
L 143.526234 307.584 
L 143.526234 165.024 
L 143.027532 165.024 
z
" clip-path="url(#p165f65cf81)" style="fill: #1f77b4"/>
   </g>
   <g id="patch_91">
    <path d="M 143.650909 307.584 
L 144.14961 307.584 
L 144.14961 228.384 
L 143.650909 228.384 
z
" clip-path="url(#p165f65cf81)" style="fill: #1f77b4"/>
   </g>
   <g id="patch_92">
    <path d="M 144.274286 307.584 
L 144.772987 307.584 
L 144.772987 196.704 
L 144.274286 196.704 
z
" clip-path="url(#p165f65cf81)" style="fill: #1f77b4"/>
   </g>
   <g id="patch_93">
    <path d="M 144.897662 307.584 
L 145.396364 307.584 
L 145.396364 180.864 
L 144.897662 180.864 
z
" clip-path="url(#p165f65cf81)" style="fill: #1f77b4"/>
   </g>
   <g id="patch_94">
    <path d="M 145.521039 307.584 
L 146.01974 307.584 
L 146.01974 165.024 
L 145.521039 165.024 
z
" clip-path="url(#p165f65cf81)" style="fill: #1f77b4"/>
   </g>
   <g id="patch_95">
    <path d="M 146.144416 307.584 
L 146.643117 307.584 
L 146.643117 165.024 
L 146.144416 165.024 
z
" clip-path="url(#p165f65cf81)" style="fill: #1f77b4"/>
   </g>
   <g id="patch_96">
    <path d="M 146.767792 307.584 
L 147.266494 307.584 
L 147.266494 149.184 
L 146.767792 149.184 
z
" clip-path="url(#p165f65cf81)" style="fill: #1f77b4"/>
   </g>
   <g id="patch_97">
    <path d="M 147.391169 307.584 
L 147.88987 307.584 
L 147.88987 165.024 
L 147.391169 165.024 
z
" clip-path="url(#p165f65cf81)" style="fill: #1f77b4"/>
   </g>
   <g id="patch_98">
    <path d="M 148.014545 307.584 
L 148.513247 307.584 
L 148.513247 244.224 
L 148.014545 244.224 
z
" clip-path="url(#p165f65cf81)" style="fill: #1f77b4"/>
   </g>
   <g id="patch_99">
    <path d="M 148.637922 307.584 
L 149.136623 307.584 
L 149.136623 196.704 
L 148.637922 196.704 
z
" clip-path="url(#p165f65cf81)" style="fill: #1f77b4"/>
   </g>
   <g id="patch_100">
    <path d="M 149.261299 307.584 
L 149.76 307.584 
L 149.76 212.544 
L 149.261299 212.544 
z
" clip-path="url(#p165f65cf81)" style="fill: #1f77b4"/>
   </g>
   <g id="patch_101">
    <path d="M 149.884675 307.584 
L 150.383377 307.584 
L 150.383377 165.024 
L 149.884675 165.024 
z
" clip-path="url(#p165f65cf81)" style="fill: #1f77b4"/>
   </g>
   <g id="patch_102">
    <path d="M 150.508052 307.584 
L 151.006753 307.584 
L 151.006753 196.704 
L 150.508052 196.704 
z
" clip-path="url(#p165f65cf81)" style="fill: #1f77b4"/>
   </g>
   <g id="patch_103">
    <path d="M 151.131429 307.584 
L 151.63013 307.584 
L 151.63013 228.384 
L 151.131429 228.384 
z
" clip-path="url(#p165f65cf81)" style="fill: #1f77b4"/>
   </g>
   <g id="patch_104">
    <path d="M 151.754805 307.584 
L 152.253506 307.584 
L 152.253506 149.184 
L 151.754805 149.184 
z
" clip-path="url(#p165f65cf81)" style="fill: #1f77b4"/>
   </g>
   <g id="patch_105">
    <path d="M 152.378182 307.584 
L 152.876883 307.584 
L 152.876883 244.224 
L 152.378182 244.224 
z
" clip-path="url(#p165f65cf81)" style="fill: #1f77b4"/>
   </g>
   <g id="patch_106">
    <path d="M 153.001558 307.584 
L 153.50026 307.584 
L 153.50026 149.184 
L 153.001558 149.184 
z
" clip-path="url(#p165f65cf81)" style="fill: #1f77b4"/>
   </g>
   <g id="patch_107">
    <path d="M 153.624935 307.584 
L 154.123636 307.584 
L 154.123636 149.184 
L 153.624935 149.184 
z
" clip-path="url(#p165f65cf81)" style="fill: #1f77b4"/>
   </g>
   <g id="patch_108">
    <path d="M 154.248312 307.584 
L 154.747013 307.584 
L 154.747013 117.504 
L 154.248312 117.504 
z
" clip-path="url(#p165f65cf81)" style="fill: #1f77b4"/>
   </g>
   <g id="patch_109">
    <path d="M 154.871688 307.584 
L 155.37039 307.584 
L 155.37039 180.864 
L 154.871688 180.864 
z
" clip-path="url(#p165f65cf81)" style="fill: #1f77b4"/>
   </g>
   <g id="patch_110">
    <path d="M 155.495065 307.584 
L 155.993766 307.584 
L 155.993766 149.184 
L 155.495065 149.184 
z
" clip-path="url(#p165f65cf81)" style="fill: #1f77b4"/>
   </g>
   <g id="patch_111">
    <path d="M 156.118442 307.584 
L 156.617143 307.584 
L 156.617143 180.864 
L 156.118442 180.864 
z
" clip-path="url(#p165f65cf81)" style="fill: #1f77b4"/>
   </g>
   <g id="patch_112">
    <path d="M 156.741818 307.584 
L 157.240519 307.584 
L 157.240519 196.704 
L 156.741818 196.704 
z
" clip-path="url(#p165f65cf81)" style="fill: #1f77b4"/>
   </g>
   <g id="patch_113">
    <path d="M 157.365195 307.584 
L 157.863896 307.584 
L 157.863896 196.704 
L 157.365195 196.704 
z
" clip-path="url(#p165f65cf81)" style="fill: #1f77b4"/>
   </g>
   <g id="patch_114">
    <path d="M 157.988571 307.584 
L 158.487273 307.584 
L 158.487273 196.704 
L 157.988571 196.704 
z
" clip-path="url(#p165f65cf81)" style="fill: #1f77b4"/>
   </g>
   <g id="patch_115">
    <path d="M 158.611948 307.584 
L 159.110649 307.584 
L 159.110649 196.704 
L 158.611948 196.704 
z
" clip-path="url(#p165f65cf81)" style="fill: #1f77b4"/>
   </g>
   <g id="patch_116">
    <path d="M 159.235325 307.584 
L 159.734026 307.584 
L 159.734026 165.024 
L 159.235325 165.024 
z
" clip-path="url(#p165f65cf81)" style="fill: #1f77b4"/>
   </g>
   <g id="patch_117">
    <path d="M 159.858701 307.584 
L 160.357403 307.584 
L 160.357403 54.144 
L 159.858701 54.144 
z
" clip-path="url(#p165f65cf81)" style="fill: #1f77b4"/>
   </g>
   <g id="patch_118">
    <path d="M 160.482078 307.584 
L 160.980779 307.584 
L 160.980779 165.024 
L 160.482078 165.024 
z
" clip-path="url(#p165f65cf81)" style="fill: #1f77b4"/>
   </g>
   <g id="patch_119">
    <path d="M 161.105455 307.584 
L 161.604156 307.584 
L 161.604156 244.224 
L 161.105455 244.224 
z
" clip-path="url(#p165f65cf81)" style="fill: #1f77b4"/>
   </g>
   <g id="patch_120">
    <path d="M 161.728831 307.584 
L 162.227532 307.584 
L 162.227532 117.504 
L 161.728831 117.504 
z
" clip-path="url(#p165f65cf81)" style="fill: #1f77b4"/>
   </g>
   <g id="patch_121">
    <path d="M 162.352208 307.584 
L 162.850909 307.584 
L 162.850909 69.984 
L 162.352208 69.984 
z
" clip-path="url(#p165f65cf81)" style="fill: #1f77b4"/>
   </g>
   <g id="patch_122">
    <path d="M 162.975584 307.584 
L 163.474286 307.584 
L 163.474286 117.504 
L 162.975584 117.504 
z
" clip-path="url(#p165f65cf81)" style="fill: #1f77b4"/>
   </g>
   <g id="patch_123">
    <path d="M 163.598961 307.584 
L 164.097662 307.584 
L 164.097662 149.184 
L 163.598961 149.184 
z
" clip-path="url(#p165f65cf81)" style="fill: #1f77b4"/>
   </g>
   <g id="patch_124">
    <path d="M 164.222338 307.584 
L 164.721039 307.584 
L 164.721039 180.864 
L 164.222338 180.864 
z
" clip-path="url(#p165f65cf81)" style="fill: #1f77b4"/>
   </g>
   <g id="patch_125">
    <path d="M 164.845714 307.584 
L 165.344416 307.584 
L 165.344416 117.504 
L 164.845714 117.504 
z
" clip-path="url(#p165f65cf81)" style="fill: #1f77b4"/>
   </g>
   <g id="patch_126">
    <path d="M 165.469091 307.584 
L 165.967792 307.584 
L 165.967792 149.184 
L 165.469091 149.184 
z
" clip-path="url(#p165f65cf81)" style="fill: #1f77b4"/>
   </g>
   <g id="patch_127">
    <path d="M 166.092468 307.584 
L 166.591169 307.584 
L 166.591169 212.544 
L 166.092468 212.544 
z
" clip-path="url(#p165f65cf81)" style="fill: #1f77b4"/>
   </g>
   <g id="patch_128">
    <path d="M 166.715844 307.584 
L 167.214545 307.584 
L 167.214545 228.384 
L 166.715844 228.384 
z
" clip-path="url(#p165f65cf81)" style="fill: #1f77b4"/>
   </g>
   <g id="patch_129">
    <path d="M 167.339221 307.584 
L 167.837922 307.584 
L 167.837922 212.544 
L 167.339221 212.544 
z
" clip-path="url(#p165f65cf81)" style="fill: #1f77b4"/>
   </g>
   <g id="patch_130">
    <path d="M 167.962597 307.584 
L 168.461299 307.584 
L 168.461299 165.024 
L 167.962597 165.024 
z
" clip-path="url(#p165f65cf81)" style="fill: #1f77b4"/>
   </g>
   <g id="patch_131">
    <path d="M 168.585974 307.584 
L 169.084675 307.584 
L 169.084675 69.984 
L 168.585974 69.984 
z
" clip-path="url(#p165f65cf81)" style="fill: #1f77b4"/>
   </g>
   <g id="patch_132">
    <path d="M 169.209351 307.584 
L 169.708052 307.584 
L 169.708052 69.984 
L 169.209351 69.984 
z
" clip-path="url(#p165f65cf81)" style="fill: #1f77b4"/>
   </g>
   <g id="patch_133">
    <path d="M 169.832727 307.584 
L 170.331429 307.584 
L 170.331429 133.344 
L 169.832727 133.344 
z
" clip-path="url(#p165f65cf81)" style="fill: #1f77b4"/>
   </g>
   <g id="patch_134">
    <path d="M 170.456104 307.584 
L 170.954805 307.584 
L 170.954805 117.504 
L 170.456104 117.504 
z
" clip-path="url(#p165f65cf81)" style="fill: #1f77b4"/>
   </g>
   <g id="patch_135">
    <path d="M 171.079481 307.584 
L 171.578182 307.584 
L 171.578182 117.504 
L 171.079481 117.504 
z
" clip-path="url(#p165f65cf81)" style="fill: #1f77b4"/>
   </g>
   <g id="patch_136">
    <path d="M 171.702857 307.584 
L 172.201558 307.584 
L 172.201558 180.864 
L 171.702857 180.864 
z
" clip-path="url(#p165f65cf81)" style="fill: #1f77b4"/>
   </g>
   <g id="patch_137">
    <path d="M 172.326234 307.584 
L 172.824935 307.584 
L 172.824935 117.504 
L 172.326234 117.504 
z
" clip-path="url(#p165f65cf81)" style="fill: #1f77b4"/>
   </g>
   <g id="patch_138">
    <path d="M 172.94961 307.584 
L 173.448312 307.584 
L 173.448312 244.224 
L 172.94961 244.224 
z
" clip-path="url(#p165f65cf81)" style="fill: #1f77b4"/>
   </g>
   <g id="patch_139">
    <path d="M 173.572987 307.584 
L 174.071688 307.584 
L 174.071688 244.224 
L 173.572987 244.224 
z
" clip-path="url(#p165f65cf81)" style="fill: #1f77b4"/>
   </g>
   <g id="patch_140">
    <path d="M 174.196364 307.584 
L 174.695065 307.584 
L 174.695065 212.544 
L 174.196364 212.544 
z
" clip-path="url(#p165f65cf81)" style="fill: #1f77b4"/>
   </g>
   <g id="patch_141">
    <path d="M 174.81974 307.584 
L 175.318442 307.584 
L 175.318442 180.864 
L 174.81974 180.864 
z
" clip-path="url(#p165f65cf81)" style="fill: #1f77b4"/>
   </g>
   <g id="patch_142">
    <path d="M 175.443117 307.584 
L 175.941818 307.584 
L 175.941818 133.344 
L 175.443117 133.344 
z
" clip-path="url(#p165f65cf81)" style="fill: #1f77b4"/>
   </g>
   <g id="patch_143">
    <path d="M 176.066494 307.584 
L 176.565195 307.584 
L 176.565195 212.544 
L 176.066494 212.544 
z
" clip-path="url(#p165f65cf81)" style="fill: #1f77b4"/>
   </g>
   <g id="patch_144">
    <path d="M 176.68987 307.584 
L 177.188571 307.584 
L 177.188571 133.344 
L 176.68987 133.344 
z
" clip-path="url(#p165f65cf81)" style="fill: #1f77b4"/>
   </g>
   <g id="patch_145">
    <path d="M 177.313247 307.584 
L 177.811948 307.584 
L 177.811948 165.024 
L 177.313247 165.024 
z
" clip-path="url(#p165f65cf81)" style="fill: #1f77b4"/>
   </g>
   <g id="patch_146">
    <path d="M 177.936623 307.584 
L 178.435325 307.584 
L 178.435325 133.344 
L 177.936623 133.344 
z
" clip-path="url(#p165f65cf81)" style="fill: #1f77b4"/>
   </g>
   <g id="patch_147">
    <path d="M 178.56 307.584 
L 179.058701 307.584 
L 179.058701 180.864 
L 178.56 180.864 
z
" clip-path="url(#p165f65cf81)" style="fill: #1f77b4"/>
   </g>
   <g id="patch_148">
    <path d="M 179.183377 307.584 
L 179.682078 307.584 
L 179.682078 228.384 
L 179.183377 228.384 
z
" clip-path="url(#p165f65cf81)" style="fill: #1f77b4"/>
   </g>
   <g id="patch_149">
    <path d="M 179.806753 307.584 
L 180.305455 307.584 
L 180.305455 228.384 
L 179.806753 228.384 
z
" clip-path="url(#p165f65cf81)" style="fill: #1f77b4"/>
   </g>
   <g id="patch_150">
    <path d="M 180.43013 307.584 
L 180.928831 307.584 
L 180.928831 165.024 
L 180.43013 165.024 
z
" clip-path="url(#p165f65cf81)" style="fill: #1f77b4"/>
   </g>
   <g id="patch_151">
    <path d="M 181.053506 307.584 
L 181.552208 307.584 
L 181.552208 180.864 
L 181.053506 180.864 
z
" clip-path="url(#p165f65cf81)" style="fill: #1f77b4"/>
   </g>
   <g id="patch_152">
    <path d="M 181.676883 307.584 
L 182.175584 307.584 
L 182.175584 54.144 
L 181.676883 54.144 
z
" clip-path="url(#p165f65cf81)" style="fill: #1f77b4"/>
   </g>
   <g id="patch_153">
    <path d="M 182.30026 307.584 
L 182.798961 307.584 
L 182.798961 196.704 
L 182.30026 196.704 
z
" clip-path="url(#p165f65cf81)" style="fill: #1f77b4"/>
   </g>
   <g id="patch_154">
    <path d="M 182.923636 307.584 
L 183.422338 307.584 
L 183.422338 180.864 
L 182.923636 180.864 
z
" clip-path="url(#p165f65cf81)" style="fill: #1f77b4"/>
   </g>
   <g id="patch_155">
    <path d="M 183.547013 307.584 
L 184.045714 307.584 
L 184.045714 149.184 
L 183.547013 149.184 
z
" clip-path="url(#p165f65cf81)" style="fill: #1f77b4"/>
   </g>
   <g id="patch_156">
    <path d="M 184.17039 307.584 
L 184.669091 307.584 
L 184.669091 180.864 
L 184.17039 180.864 
z
" clip-path="url(#p165f65cf81)" style="fill: #1f77b4"/>
   </g>
   <g id="patch_157">
    <path d="M 184.793766 307.584 
L 185.292468 307.584 
L 185.292468 69.984 
L 184.793766 69.984 
z
" clip-path="url(#p165f65cf81)" style="fill: #1f77b4"/>
   </g>
   <g id="patch_158">
    <path d="M 185.417143 307.584 
L 185.915844 307.584 
L 185.915844 244.224 
L 185.417143 244.224 
z
" clip-path="url(#p165f65cf81)" style="fill: #1f77b4"/>
   </g>
   <g id="patch_159">
    <path d="M 186.040519 307.584 
L 186.539221 307.584 
L 186.539221 196.704 
L 186.040519 196.704 
z
" clip-path="url(#p165f65cf81)" style="fill: #1f77b4"/>
   </g>
   <g id="patch_160">
    <path d="M 186.663896 307.584 
L 187.162597 307.584 
L 187.162597 212.544 
L 186.663896 212.544 
z
" clip-path="url(#p165f65cf81)" style="fill: #1f77b4"/>
   </g>
   <g id="patch_161">
    <path d="M 187.287273 307.584 
L 187.785974 307.584 
L 187.785974 228.384 
L 187.287273 228.384 
z
" clip-path="url(#p165f65cf81)" style="fill: #1f77b4"/>
   </g>
   <g id="patch_162">
    <path d="M 187.910649 307.584 
L 188.409351 307.584 
L 188.409351 117.504 
L 187.910649 117.504 
z
" clip-path="url(#p165f65cf81)" style="fill: #1f77b4"/>
   </g>
   <g id="patch_163">
    <path d="M 188.534026 307.584 
L 189.032727 307.584 
L 189.032727 117.504 
L 188.534026 117.504 
z
" clip-path="url(#p165f65cf81)" style="fill: #1f77b4"/>
   </g>
   <g id="patch_164">
    <path d="M 189.157403 307.584 
L 189.656104 307.584 
L 189.656104 133.344 
L 189.157403 133.344 
z
" clip-path="url(#p165f65cf81)" style="fill: #1f77b4"/>
   </g>
   <g id="patch_165">
    <path d="M 189.780779 307.584 
L 190.279481 307.584 
L 190.279481 180.864 
L 189.780779 180.864 
z
" clip-path="url(#p165f65cf81)" style="fill: #1f77b4"/>
   </g>
   <g id="patch_166">
    <path d="M 190.404156 307.584 
L 190.902857 307.584 
L 190.902857 149.184 
L 190.404156 149.184 
z
" clip-path="url(#p165f65cf81)" style="fill: #1f77b4"/>
   </g>
   <g id="patch_167">
    <path d="M 191.027532 307.584 
L 191.526234 307.584 
L 191.526234 101.664 
L 191.027532 101.664 
z
" clip-path="url(#p165f65cf81)" style="fill: #1f77b4"/>
   </g>
   <g id="patch_168">
    <path d="M 191.650909 307.584 
L 192.14961 307.584 
L 192.14961 117.504 
L 191.650909 117.504 
z
" clip-path="url(#p165f65cf81)" style="fill: #1f77b4"/>
   </g>
   <g id="patch_169">
    <path d="M 192.274286 307.584 
L 192.772987 307.584 
L 192.772987 228.384 
L 192.274286 228.384 
z
" clip-path="url(#p165f65cf81)" style="fill: #1f77b4"/>
   </g>
   <g id="patch_170">
    <path d="M 192.897662 307.584 
L 193.396364 307.584 
L 193.396364 180.864 
L 192.897662 180.864 
z
" clip-path="url(#p165f65cf81)" style="fill: #1f77b4"/>
   </g>
   <g id="patch_171">
    <path d="M 193.521039 307.584 
L 194.01974 307.584 
L 194.01974 149.184 
L 193.521039 149.184 
z
" clip-path="url(#p165f65cf81)" style="fill: #1f77b4"/>
   </g>
   <g id="patch_172">
    <path d="M 194.144416 307.584 
L 194.643117 307.584 
L 194.643117 85.824 
L 194.144416 85.824 
z
" clip-path="url(#p165f65cf81)" style="fill: #1f77b4"/>
   </g>
   <g id="patch_173">
    <path d="M 194.767792 307.584 
L 195.266494 307.584 
L 195.266494 212.544 
L 194.767792 212.544 
z
" clip-path="url(#p165f65cf81)" style="fill: #1f77b4"/>
   </g>
   <g id="patch_174">
    <path d="M 195.391169 307.584 
L 195.88987 307.584 
L 195.88987 149.184 
L 195.391169 149.184 
z
" clip-path="url(#p165f65cf81)" style="fill: #1f77b4"/>
   </g>
   <g id="patch_175">
    <path d="M 196.014545 307.584 
L 196.513247 307.584 
L 196.513247 180.864 
L 196.014545 180.864 
z
" clip-path="url(#p165f65cf81)" style="fill: #1f77b4"/>
   </g>
   <g id="patch_176">
    <path d="M 196.637922 307.584 
L 197.136623 307.584 
L 197.136623 149.184 
L 196.637922 149.184 
z
" clip-path="url(#p165f65cf81)" style="fill: #1f77b4"/>
   </g>
   <g id="patch_177">
    <path d="M 197.261299 307.584 
L 197.76 307.584 
L 197.76 180.864 
L 197.261299 180.864 
z
" clip-path="url(#p165f65cf81)" style="fill: #1f77b4"/>
   </g>
   <g id="patch_178">
    <path d="M 197.884675 307.584 
L 198.383377 307.584 
L 198.383377 228.384 
L 197.884675 228.384 
z
" clip-path="url(#p165f65cf81)" style="fill: #1f77b4"/>
   </g>
   <g id="patch_179">
    <path d="M 198.508052 307.584 
L 199.006753 307.584 
L 199.006753 244.224 
L 198.508052 244.224 
z
" clip-path="url(#p165f65cf81)" style="fill: #1f77b4"/>
   </g>
   <g id="patch_180">
    <path d="M 199.131429 307.584 
L 199.63013 307.584 
L 199.63013 165.024 
L 199.131429 165.024 
z
" clip-path="url(#p165f65cf81)" style="fill: #1f77b4"/>
   </g>
   <g id="patch_181">
    <path d="M 199.754805 307.584 
L 200.253506 307.584 
L 200.253506 133.344 
L 199.754805 133.344 
z
" clip-path="url(#p165f65cf81)" style="fill: #1f77b4"/>
   </g>
   <g id="patch_182">
    <path d="M 200.378182 307.584 
L 200.876883 307.584 
L 200.876883 149.184 
L 200.378182 149.184 
z
" clip-path="url(#p165f65cf81)" style="fill: #1f77b4"/>
   </g>
   <g id="patch_183">
    <path d="M 201.001558 307.584 
L 201.50026 307.584 
L 201.50026 212.544 
L 201.001558 212.544 
z
" clip-path="url(#p165f65cf81)" style="fill: #1f77b4"/>
   </g>
   <g id="patch_184">
    <path d="M 201.624935 307.584 
L 202.123636 307.584 
L 202.123636 149.184 
L 201.624935 149.184 
z
" clip-path="url(#p165f65cf81)" style="fill: #1f77b4"/>
   </g>
   <g id="patch_185">
    <path d="M 202.248312 307.584 
L 202.747013 307.584 
L 202.747013 228.384 
L 202.248312 228.384 
z
" clip-path="url(#p165f65cf81)" style="fill: #1f77b4"/>
   </g>
   <g id="patch_186">
    <path d="M 202.871688 307.584 
L 203.37039 307.584 
L 203.37039 196.704 
L 202.871688 196.704 
z
" clip-path="url(#p165f65cf81)" style="fill: #1f77b4"/>
   </g>
   <g id="patch_187">
    <path d="M 203.495065 307.584 
L 203.993766 307.584 
L 203.993766 165.024 
L 203.495065 165.024 
z
" clip-path="url(#p165f65cf81)" style="fill: #1f77b4"/>
   </g>
   <g id="patch_188">
    <path d="M 204.118442 307.584 
L 204.617143 307.584 
L 204.617143 244.224 
L 204.118442 244.224 
z
" clip-path="url(#p165f65cf81)" style="fill: #1f77b4"/>
   </g>
   <g id="patch_189">
    <path d="M 204.741818 307.584 
L 205.240519 307.584 
L 205.240519 228.384 
L 204.741818 228.384 
z
" clip-path="url(#p165f65cf81)" style="fill: #1f77b4"/>
   </g>
   <g id="patch_190">
    <path d="M 205.365195 307.584 
L 205.863896 307.584 
L 205.863896 212.544 
L 205.365195 212.544 
z
" clip-path="url(#p165f65cf81)" style="fill: #1f77b4"/>
   </g>
   <g id="patch_191">
    <path d="M 205.988571 307.584 
L 206.487273 307.584 
L 206.487273 180.864 
L 205.988571 180.864 
z
" clip-path="url(#p165f65cf81)" style="fill: #1f77b4"/>
   </g>
   <g id="patch_192">
    <path d="M 206.611948 307.584 
L 207.110649 307.584 
L 207.110649 180.864 
L 206.611948 180.864 
z
" clip-path="url(#p165f65cf81)" style="fill: #1f77b4"/>
   </g>
   <g id="patch_193">
    <path d="M 207.235325 307.584 
L 207.734026 307.584 
L 207.734026 180.864 
L 207.235325 180.864 
z
" clip-path="url(#p165f65cf81)" style="fill: #1f77b4"/>
   </g>
   <g id="patch_194">
    <path d="M 207.858701 307.584 
L 208.357403 307.584 
L 208.357403 244.224 
L 207.858701 244.224 
z
" clip-path="url(#p165f65cf81)" style="fill: #1f77b4"/>
   </g>
   <g id="patch_195">
    <path d="M 208.482078 307.584 
L 208.980779 307.584 
L 208.980779 165.024 
L 208.482078 165.024 
z
" clip-path="url(#p165f65cf81)" style="fill: #1f77b4"/>
   </g>
   <g id="patch_196">
    <path d="M 209.105455 307.584 
L 209.604156 307.584 
L 209.604156 117.504 
L 209.105455 117.504 
z
" clip-path="url(#p165f65cf81)" style="fill: #1f77b4"/>
   </g>
   <g id="patch_197">
    <path d="M 209.728831 307.584 
L 210.227532 307.584 
L 210.227532 196.704 
L 209.728831 196.704 
z
" clip-path="url(#p165f65cf81)" style="fill: #1f77b4"/>
   </g>
   <g id="patch_198">
    <path d="M 210.352208 307.584 
L 210.850909 307.584 
L 210.850909 212.544 
L 210.352208 212.544 
z
" clip-path="url(#p165f65cf81)" style="fill: #1f77b4"/>
   </g>
   <g id="patch_199">
    <path d="M 210.975584 307.584 
L 211.474286 307.584 
L 211.474286 165.024 
L 210.975584 165.024 
z
" clip-path="url(#p165f65cf81)" style="fill: #1f77b4"/>
   </g>
   <g id="patch_200">
    <path d="M 211.598961 307.584 
L 212.097662 307.584 
L 212.097662 165.024 
L 211.598961 165.024 
z
" clip-path="url(#p165f65cf81)" style="fill: #1f77b4"/>
   </g>
   <g id="patch_201">
    <path d="M 212.222338 307.584 
L 212.721039 307.584 
L 212.721039 180.864 
L 212.222338 180.864 
z
" clip-path="url(#p165f65cf81)" style="fill: #1f77b4"/>
   </g>
   <g id="patch_202">
    <path d="M 212.845714 307.584 
L 213.344416 307.584 
L 213.344416 180.864 
L 212.845714 180.864 
z
" clip-path="url(#p165f65cf81)" style="fill: #1f77b4"/>
   </g>
   <g id="patch_203">
    <path d="M 213.469091 307.584 
L 213.967792 307.584 
L 213.967792 85.824 
L 213.469091 85.824 
z
" clip-path="url(#p165f65cf81)" style="fill: #1f77b4"/>
   </g>
   <g id="patch_204">
    <path d="M 214.092468 307.584 
L 214.591169 307.584 
L 214.591169 101.664 
L 214.092468 101.664 
z
" clip-path="url(#p165f65cf81)" style="fill: #1f77b4"/>
   </g>
   <g id="patch_205">
    <path d="M 214.715844 307.584 
L 215.214545 307.584 
L 215.214545 117.504 
L 214.715844 117.504 
z
" clip-path="url(#p165f65cf81)" style="fill: #1f77b4"/>
   </g>
   <g id="patch_206">
    <path d="M 215.339221 307.584 
L 215.837922 307.584 
L 215.837922 196.704 
L 215.339221 196.704 
z
" clip-path="url(#p165f65cf81)" style="fill: #1f77b4"/>
   </g>
   <g id="patch_207">
    <path d="M 215.962597 307.584 
L 216.461299 307.584 
L 216.461299 228.384 
L 215.962597 228.384 
z
" clip-path="url(#p165f65cf81)" style="fill: #1f77b4"/>
   </g>
   <g id="patch_208">
    <path d="M 216.585974 307.584 
L 217.084675 307.584 
L 217.084675 228.384 
L 216.585974 228.384 
z
" clip-path="url(#p165f65cf81)" style="fill: #1f77b4"/>
   </g>
   <g id="patch_209">
    <path d="M 217.209351 307.584 
L 217.708052 307.584 
L 217.708052 101.664 
L 217.209351 101.664 
z
" clip-path="url(#p165f65cf81)" style="fill: #1f77b4"/>
   </g>
   <g id="patch_210">
    <path d="M 217.832727 307.584 
L 218.331429 307.584 
L 218.331429 165.024 
L 217.832727 165.024 
z
" clip-path="url(#p165f65cf81)" style="fill: #1f77b4"/>
   </g>
   <g id="patch_211">
    <path d="M 218.456104 307.584 
L 218.954805 307.584 
L 218.954805 275.904 
L 218.456104 275.904 
z
" clip-path="url(#p165f65cf81)" style="fill: #1f77b4"/>
   </g>
   <g id="patch_212">
    <path d="M 219.079481 307.584 
L 219.578182 307.584 
L 219.578182 180.864 
L 219.079481 180.864 
z
" clip-path="url(#p165f65cf81)" style="fill: #1f77b4"/>
   </g>
   <g id="patch_213">
    <path d="M 219.702857 307.584 
L 220.201558 307.584 
L 220.201558 196.704 
L 219.702857 196.704 
z
" clip-path="url(#p165f65cf81)" style="fill: #1f77b4"/>
   </g>
   <g id="patch_214">
    <path d="M 220.326234 307.584 
L 220.824935 307.584 
L 220.824935 212.544 
L 220.326234 212.544 
z
" clip-path="url(#p165f65cf81)" style="fill: #1f77b4"/>
   </g>
   <g id="patch_215">
    <path d="M 220.94961 307.584 
L 221.448312 307.584 
L 221.448312 196.704 
L 220.94961 196.704 
z
" clip-path="url(#p165f65cf81)" style="fill: #1f77b4"/>
   </g>
   <g id="patch_216">
    <path d="M 221.572987 307.584 
L 222.071688 307.584 
L 222.071688 196.704 
L 221.572987 196.704 
z
" clip-path="url(#p165f65cf81)" style="fill: #1f77b4"/>
   </g>
   <g id="patch_217">
    <path d="M 222.196364 307.584 
L 222.695065 307.584 
L 222.695065 260.064 
L 222.196364 260.064 
z
" clip-path="url(#p165f65cf81)" style="fill: #1f77b4"/>
   </g>
   <g id="patch_218">
    <path d="M 222.81974 307.584 
L 223.318442 307.584 
L 223.318442 244.224 
L 222.81974 244.224 
z
" clip-path="url(#p165f65cf81)" style="fill: #1f77b4"/>
   </g>
   <g id="patch_219">
    <path d="M 223.443117 307.584 
L 223.941818 307.584 
L 223.941818 260.064 
L 223.443117 260.064 
z
" clip-path="url(#p165f65cf81)" style="fill: #1f77b4"/>
   </g>
   <g id="patch_220">
    <path d="M 224.68987 307.584 
L 225.188571 307.584 
L 225.188571 260.064 
L 224.68987 260.064 
z
" clip-path="url(#p165f65cf81)" style="fill: #1f77b4"/>
   </g>
   <g id="patch_221">
    <path d="M 225.313247 307.584 
L 225.811948 307.584 
L 225.811948 228.384 
L 225.313247 228.384 
z
" clip-path="url(#p165f65cf81)" style="fill: #1f77b4"/>
   </g>
   <g id="patch_222">
    <path d="M 225.936623 307.584 
L 226.435325 307.584 
L 226.435325 196.704 
L 225.936623 196.704 
z
" clip-path="url(#p165f65cf81)" style="fill: #1f77b4"/>
   </g>
   <g id="patch_223">
    <path d="M 226.56 307.584 
L 227.058701 307.584 
L 227.058701 291.744 
L 226.56 291.744 
z
" clip-path="url(#p165f65cf81)" style="fill: #1f77b4"/>
   </g>
   <g id="patch_224">
    <path d="M 227.183377 307.584 
L 227.682078 307.584 
L 227.682078 212.544 
L 227.183377 212.544 
z
" clip-path="url(#p165f65cf81)" style="fill: #1f77b4"/>
   </g>
   <g id="patch_225">
    <path d="M 227.806753 307.584 
L 228.305455 307.584 
L 228.305455 180.864 
L 227.806753 180.864 
z
" clip-path="url(#p165f65cf81)" style="fill: #1f77b4"/>
   </g>
   <g id="patch_226">
    <path d="M 228.43013 307.584 
L 228.928831 307.584 
L 228.928831 244.224 
L 228.43013 244.224 
z
" clip-path="url(#p165f65cf81)" style="fill: #1f77b4"/>
   </g>
   <g id="patch_227">
    <path d="M 229.053506 307.584 
L 229.552208 307.584 
L 229.552208 212.544 
L 229.053506 212.544 
z
" clip-path="url(#p165f65cf81)" style="fill: #1f77b4"/>
   </g>
   <g id="patch_228">
    <path d="M 229.676883 307.584 
L 230.175584 307.584 
L 230.175584 180.864 
L 229.676883 180.864 
z
" clip-path="url(#p165f65cf81)" style="fill: #1f77b4"/>
   </g>
   <g id="patch_229">
    <path d="M 230.30026 307.584 
L 230.798961 307.584 
L 230.798961 244.224 
L 230.30026 244.224 
z
" clip-path="url(#p165f65cf81)" style="fill: #1f77b4"/>
   </g>
   <g id="patch_230">
    <path d="M 230.923636 307.584 
L 231.422338 307.584 
L 231.422338 133.344 
L 230.923636 133.344 
z
" clip-path="url(#p165f65cf81)" style="fill: #1f77b4"/>
   </g>
   <g id="patch_231">
    <path d="M 231.547013 307.584 
L 232.045714 307.584 
L 232.045714 228.384 
L 231.547013 228.384 
z
" clip-path="url(#p165f65cf81)" style="fill: #1f77b4"/>
   </g>
   <g id="patch_232">
    <path d="M 232.17039 307.584 
L 232.669091 307.584 
L 232.669091 212.544 
L 232.17039 212.544 
z
" clip-path="url(#p165f65cf81)" style="fill: #1f77b4"/>
   </g>
   <g id="patch_233">
    <path d="M 232.793766 307.584 
L 233.292468 307.584 
L 233.292468 260.064 
L 232.793766 260.064 
z
" clip-path="url(#p165f65cf81)" style="fill: #1f77b4"/>
   </g>
   <g id="patch_234">
    <path d="M 233.417143 307.584 
L 233.915844 307.584 
L 233.915844 212.544 
L 233.417143 212.544 
z
" clip-path="url(#p165f65cf81)" style="fill: #1f77b4"/>
   </g>
   <g id="patch_235">
    <path d="M 234.040519 307.584 
L 234.539221 307.584 
L 234.539221 244.224 
L 234.040519 244.224 
z
" clip-path="url(#p165f65cf81)" style="fill: #1f77b4"/>
   </g>
   <g id="patch_236">
    <path d="M 234.663896 307.584 
L 235.162597 307.584 
L 235.162597 244.224 
L 234.663896 244.224 
z
" clip-path="url(#p165f65cf81)" style="fill: #1f77b4"/>
   </g>
   <g id="patch_237">
    <path d="M 235.287273 307.584 
L 235.785974 307.584 
L 235.785974 260.064 
L 235.287273 260.064 
z
" clip-path="url(#p165f65cf81)" style="fill: #1f77b4"/>
   </g>
   <g id="patch_238">
    <path d="M 235.910649 307.584 
L 236.409351 307.584 
L 236.409351 244.224 
L 235.910649 244.224 
z
" clip-path="url(#p165f65cf81)" style="fill: #1f77b4"/>
   </g>
   <g id="patch_239">
    <path d="M 236.534026 307.584 
L 237.032727 307.584 
L 237.032727 212.544 
L 236.534026 212.544 
z
" clip-path="url(#p165f65cf81)" style="fill: #1f77b4"/>
   </g>
   <g id="patch_240">
    <path d="M 237.157403 307.584 
L 237.656104 307.584 
L 237.656104 212.544 
L 237.157403 212.544 
z
" clip-path="url(#p165f65cf81)" style="fill: #1f77b4"/>
   </g>
   <g id="patch_241">
    <path d="M 237.780779 307.584 
L 238.279481 307.584 
L 238.279481 196.704 
L 237.780779 196.704 
z
" clip-path="url(#p165f65cf81)" style="fill: #1f77b4"/>
   </g>
   <g id="patch_242">
    <path d="M 238.404156 307.584 
L 238.902857 307.584 
L 238.902857 149.184 
L 238.404156 149.184 
z
" clip-path="url(#p165f65cf81)" style="fill: #1f77b4"/>
   </g>
   <g id="patch_243">
    <path d="M 239.027532 307.584 
L 239.526234 307.584 
L 239.526234 275.904 
L 239.027532 275.904 
z
" clip-path="url(#p165f65cf81)" style="fill: #1f77b4"/>
   </g>
   <g id="patch_244">
    <path d="M 239.650909 307.584 
L 240.14961 307.584 
L 240.14961 244.224 
L 239.650909 244.224 
z
" clip-path="url(#p165f65cf81)" style="fill: #1f77b4"/>
   </g>
   <g id="patch_245">
    <path d="M 240.274286 307.584 
L 240.772987 307.584 
L 240.772987 275.904 
L 240.274286 275.904 
z
" clip-path="url(#p165f65cf81)" style="fill: #1f77b4"/>
   </g>
   <g id="patch_246">
    <path d="M 240.897662 307.584 
L 241.396364 307.584 
L 241.396364 291.744 
L 240.897662 291.744 
z
" clip-path="url(#p165f65cf81)" style="fill: #1f77b4"/>
   </g>
   <g id="patch_247">
    <path d="M 241.521039 307.584 
L 242.01974 307.584 
L 242.01974 228.384 
L 241.521039 228.384 
z
" clip-path="url(#p165f65cf81)" style="fill: #1f77b4"/>
   </g>
   <g id="patch_248">
    <path d="M 242.144416 307.584 
L 242.643117 307.584 
L 242.643117 228.384 
L 242.144416 228.384 
z
" clip-path="url(#p165f65cf81)" style="fill: #1f77b4"/>
   </g>
   <g id="patch_249">
    <path d="M 242.767792 307.584 
L 243.266494 307.584 
L 243.266494 291.744 
L 242.767792 291.744 
z
" clip-path="url(#p165f65cf81)" style="fill: #1f77b4"/>
   </g>
   <g id="patch_250">
    <path d="M 243.391169 307.584 
L 243.88987 307.584 
L 243.88987 228.384 
L 243.391169 228.384 
z
" clip-path="url(#p165f65cf81)" style="fill: #1f77b4"/>
   </g>
   <g id="patch_251">
    <path d="M 244.014545 307.584 
L 244.513247 307.584 
L 244.513247 212.544 
L 244.014545 212.544 
z
" clip-path="url(#p165f65cf81)" style="fill: #1f77b4"/>
   </g>
   <g id="patch_252">
    <path d="M 244.637922 307.584 
L 245.136623 307.584 
L 245.136623 260.064 
L 244.637922 260.064 
z
" clip-path="url(#p165f65cf81)" style="fill: #1f77b4"/>
   </g>
   <g id="patch_253">
    <path d="M 245.261299 307.584 
L 245.76 307.584 
L 245.76 228.384 
L 245.261299 228.384 
z
" clip-path="url(#p165f65cf81)" style="fill: #1f77b4"/>
   </g>
   <g id="patch_254">
    <path d="M 245.884675 307.584 
L 246.383377 307.584 
L 246.383377 228.384 
L 245.884675 228.384 
z
" clip-path="url(#p165f65cf81)" style="fill: #1f77b4"/>
   </g>
   <g id="patch_255">
    <path d="M 246.508052 307.584 
L 247.006753 307.584 
L 247.006753 260.064 
L 246.508052 260.064 
z
" clip-path="url(#p165f65cf81)" style="fill: #1f77b4"/>
   </g>
   <g id="patch_256">
    <path d="M 247.131429 307.584 
L 247.63013 307.584 
L 247.63013 244.224 
L 247.131429 244.224 
z
" clip-path="url(#p165f65cf81)" style="fill: #1f77b4"/>
   </g>
   <g id="patch_257">
    <path d="M 247.754805 307.584 
L 248.253506 307.584 
L 248.253506 212.544 
L 247.754805 212.544 
z
" clip-path="url(#p165f65cf81)" style="fill: #1f77b4"/>
   </g>
   <g id="patch_258">
    <path d="M 248.378182 307.584 
L 248.876883 307.584 
L 248.876883 212.544 
L 248.378182 212.544 
z
" clip-path="url(#p165f65cf81)" style="fill: #1f77b4"/>
   </g>
   <g id="patch_259">
    <path d="M 249.001558 307.584 
L 249.50026 307.584 
L 249.50026 244.224 
L 249.001558 244.224 
z
" clip-path="url(#p165f65cf81)" style="fill: #1f77b4"/>
   </g>
   <g id="patch_260">
    <path d="M 249.624935 307.584 
L 250.123636 307.584 
L 250.123636 275.904 
L 249.624935 275.904 
z
" clip-path="url(#p165f65cf81)" style="fill: #1f77b4"/>
   </g>
   <g id="patch_261">
    <path d="M 250.248312 307.584 
L 250.747013 307.584 
L 250.747013 196.704 
L 250.248312 196.704 
z
" clip-path="url(#p165f65cf81)" style="fill: #1f77b4"/>
   </g>
   <g id="patch_262">
    <path d="M 250.871688 307.584 
L 251.37039 307.584 
L 251.37039 275.904 
L 250.871688 275.904 
z
" clip-path="url(#p165f65cf81)" style="fill: #1f77b4"/>
   </g>
   <g id="patch_263">
    <path d="M 251.495065 307.584 
L 251.993766 307.584 
L 251.993766 212.544 
L 251.495065 212.544 
z
" clip-path="url(#p165f65cf81)" style="fill: #1f77b4"/>
   </g>
   <g id="patch_264">
    <path d="M 252.118442 307.584 
L 252.617143 307.584 
L 252.617143 291.744 
L 252.118442 291.744 
z
" clip-path="url(#p165f65cf81)" style="fill: #1f77b4"/>
   </g>
   <g id="patch_265">
    <path d="M 252.741818 307.584 
L 253.240519 307.584 
L 253.240519 260.064 
L 252.741818 260.064 
z
" clip-path="url(#p165f65cf81)" style="fill: #1f77b4"/>
   </g>
   <g id="patch_266">
    <path d="M 253.365195 307.584 
L 253.863896 307.584 
L 253.863896 228.384 
L 253.365195 228.384 
z
" clip-path="url(#p165f65cf81)" style="fill: #1f77b4"/>
   </g>
   <g id="patch_267">
    <path d="M 253.988571 307.584 
L 254.487273 307.584 
L 254.487273 212.544 
L 253.988571 212.544 
z
" clip-path="url(#p165f65cf81)" style="fill: #1f77b4"/>
   </g>
   <g id="patch_268">
    <path d="M 254.611948 307.584 
L 255.110649 307.584 
L 255.110649 228.384 
L 254.611948 228.384 
z
" clip-path="url(#p165f65cf81)" style="fill: #1f77b4"/>
   </g>
   <g id="patch_269">
    <path d="M 255.235325 307.584 
L 255.734026 307.584 
L 255.734026 291.744 
L 255.235325 291.744 
z
" clip-path="url(#p165f65cf81)" style="fill: #1f77b4"/>
   </g>
   <g id="patch_270">
    <path d="M 255.858701 307.584 
L 256.357403 307.584 
L 256.357403 291.744 
L 255.858701 291.744 
z
" clip-path="url(#p165f65cf81)" style="fill: #1f77b4"/>
   </g>
   <g id="patch_271">
    <path d="M 256.482078 307.584 
L 256.980779 307.584 
L 256.980779 275.904 
L 256.482078 275.904 
z
" clip-path="url(#p165f65cf81)" style="fill: #1f77b4"/>
   </g>
   <g id="patch_272">
    <path d="M 257.105455 307.584 
L 257.604156 307.584 
L 257.604156 275.904 
L 257.105455 275.904 
z
" clip-path="url(#p165f65cf81)" style="fill: #1f77b4"/>
   </g>
   <g id="patch_273">
    <path d="M 257.728831 307.584 
L 258.227532 307.584 
L 258.227532 275.904 
L 257.728831 275.904 
z
" clip-path="url(#p165f65cf81)" style="fill: #1f77b4"/>
   </g>
   <g id="patch_274">
    <path d="M 258.352208 307.584 
L 258.850909 307.584 
L 258.850909 291.744 
L 258.352208 291.744 
z
" clip-path="url(#p165f65cf81)" style="fill: #1f77b4"/>
   </g>
   <g id="patch_275">
    <path d="M 258.975584 307.584 
L 259.474286 307.584 
L 259.474286 275.904 
L 258.975584 275.904 
z
" clip-path="url(#p165f65cf81)" style="fill: #1f77b4"/>
   </g>
   <g id="patch_276">
    <path d="M 259.598961 307.584 
L 260.097662 307.584 
L 260.097662 260.064 
L 259.598961 260.064 
z
" clip-path="url(#p165f65cf81)" style="fill: #1f77b4"/>
   </g>
   <g id="patch_277">
    <path d="M 260.222338 307.584 
L 260.721039 307.584 
L 260.721039 244.224 
L 260.222338 244.224 
z
" clip-path="url(#p165f65cf81)" style="fill: #1f77b4"/>
   </g>
   <g id="patch_278">
    <path d="M 260.845714 307.584 
L 261.344416 307.584 
L 261.344416 260.064 
L 260.845714 260.064 
z
" clip-path="url(#p165f65cf81)" style="fill: #1f77b4"/>
   </g>
   <g id="patch_279">
    <path d="M 261.469091 307.584 
L 261.967792 307.584 
L 261.967792 244.224 
L 261.469091 244.224 
z
" clip-path="url(#p165f65cf81)" style="fill: #1f77b4"/>
   </g>
   <g id="patch_280">
    <path d="M 262.092468 307.584 
L 262.591169 307.584 
L 262.591169 291.744 
L 262.092468 291.744 
z
" clip-path="url(#p165f65cf81)" style="fill: #1f77b4"/>
   </g>
   <g id="patch_281">
    <path d="M 262.715844 307.584 
L 263.214545 307.584 
L 263.214545 260.064 
L 262.715844 260.064 
z
" clip-path="url(#p165f65cf81)" style="fill: #1f77b4"/>
   </g>
   <g id="patch_282">
    <path d="M 263.339221 307.584 
L 263.837922 307.584 
L 263.837922 212.544 
L 263.339221 212.544 
z
" clip-path="url(#p165f65cf81)" style="fill: #1f77b4"/>
   </g>
   <g id="patch_283">
    <path d="M 263.962597 307.584 
L 264.461299 307.584 
L 264.461299 244.224 
L 263.962597 244.224 
z
" clip-path="url(#p165f65cf81)" style="fill: #1f77b4"/>
   </g>
   <g id="patch_284">
    <path d="M 264.585974 307.584 
L 265.084675 307.584 
L 265.084675 275.904 
L 264.585974 275.904 
z
" clip-path="url(#p165f65cf81)" style="fill: #1f77b4"/>
   </g>
   <g id="patch_285">
    <path d="M 265.209351 307.584 
L 265.708052 307.584 
L 265.708052 275.904 
L 265.209351 275.904 
z
" clip-path="url(#p165f65cf81)" style="fill: #1f77b4"/>
   </g>
   <g id="patch_286">
    <path d="M 266.456104 307.584 
L 266.954805 307.584 
L 266.954805 260.064 
L 266.456104 260.064 
z
" clip-path="url(#p165f65cf81)" style="fill: #1f77b4"/>
   </g>
   <g id="patch_287">
    <path d="M 267.079481 307.584 
L 267.578182 307.584 
L 267.578182 228.384 
L 267.079481 228.384 
z
" clip-path="url(#p165f65cf81)" style="fill: #1f77b4"/>
   </g>
   <g id="patch_288">
    <path d="M 267.702857 307.584 
L 268.201558 307.584 
L 268.201558 275.904 
L 267.702857 275.904 
z
" clip-path="url(#p165f65cf81)" style="fill: #1f77b4"/>
   </g>
   <g id="patch_289">
    <path d="M 268.326234 307.584 
L 268.824935 307.584 
L 268.824935 260.064 
L 268.326234 260.064 
z
" clip-path="url(#p165f65cf81)" style="fill: #1f77b4"/>
   </g>
   <g id="patch_290">
    <path d="M 268.94961 307.584 
L 269.448312 307.584 
L 269.448312 291.744 
L 268.94961 291.744 
z
" clip-path="url(#p165f65cf81)" style="fill: #1f77b4"/>
   </g>
   <g id="patch_291">
    <path d="M 269.572987 307.584 
L 270.071688 307.584 
L 270.071688 275.904 
L 269.572987 275.904 
z
" clip-path="url(#p165f65cf81)" style="fill: #1f77b4"/>
   </g>
   <g id="patch_292">
    <path d="M 270.196364 307.584 
L 270.695065 307.584 
L 270.695065 291.744 
L 270.196364 291.744 
z
" clip-path="url(#p165f65cf81)" style="fill: #1f77b4"/>
   </g>
   <g id="patch_293">
    <path d="M 270.81974 307.584 
L 271.318442 307.584 
L 271.318442 275.904 
L 270.81974 275.904 
z
" clip-path="url(#p165f65cf81)" style="fill: #1f77b4"/>
   </g>
   <g id="patch_294">
    <path d="M 272.066494 307.584 
L 272.565195 307.584 
L 272.565195 275.904 
L 272.066494 275.904 
z
" clip-path="url(#p165f65cf81)" style="fill: #1f77b4"/>
   </g>
   <g id="patch_295">
    <path d="M 274.56 307.584 
L 275.058701 307.584 
L 275.058701 275.904 
L 274.56 275.904 
z
" clip-path="url(#p165f65cf81)" style="fill: #1f77b4"/>
   </g>
   <g id="patch_296">
    <path d="M 275.183377 307.584 
L 275.682078 307.584 
L 275.682078 291.744 
L 275.183377 291.744 
z
" clip-path="url(#p165f65cf81)" style="fill: #1f77b4"/>
   </g>
   <g id="patch_297">
    <path d="M 275.806753 307.584 
L 276.305455 307.584 
L 276.305455 275.904 
L 275.806753 275.904 
z
" clip-path="url(#p165f65cf81)" style="fill: #1f77b4"/>
   </g>
   <g id="patch_298">
    <path d="M 276.43013 307.584 
L 276.928831 307.584 
L 276.928831 291.744 
L 276.43013 291.744 
z
" clip-path="url(#p165f65cf81)" style="fill: #1f77b4"/>
   </g>
   <g id="patch_299">
    <path d="M 277.053506 307.584 
L 277.552208 307.584 
L 277.552208 275.904 
L 277.053506 275.904 
z
" clip-path="url(#p165f65cf81)" style="fill: #1f77b4"/>
   </g>
   <g id="patch_300">
    <path d="M 277.676883 307.584 
L 278.175584 307.584 
L 278.175584 291.744 
L 277.676883 291.744 
z
" clip-path="url(#p165f65cf81)" style="fill: #1f77b4"/>
   </g>
   <g id="patch_301">
    <path d="M 278.30026 307.584 
L 278.798961 307.584 
L 278.798961 260.064 
L 278.30026 260.064 
z
" clip-path="url(#p165f65cf81)" style="fill: #1f77b4"/>
   </g>
   <g id="patch_302">
    <path d="M 278.923636 307.584 
L 279.422338 307.584 
L 279.422338 275.904 
L 278.923636 275.904 
z
" clip-path="url(#p165f65cf81)" style="fill: #1f77b4"/>
   </g>
   <g id="patch_303">
    <path d="M 279.547013 307.584 
L 280.045714 307.584 
L 280.045714 291.744 
L 279.547013 291.744 
z
" clip-path="url(#p165f65cf81)" style="fill: #1f77b4"/>
   </g>
   <g id="patch_304">
    <path d="M 280.17039 307.584 
L 280.669091 307.584 
L 280.669091 275.904 
L 280.17039 275.904 
z
" clip-path="url(#p165f65cf81)" style="fill: #1f77b4"/>
   </g>
   <g id="patch_305">
    <path d="M 280.793766 307.584 
L 281.292468 307.584 
L 281.292468 291.744 
L 280.793766 291.744 
z
" clip-path="url(#p165f65cf81)" style="fill: #1f77b4"/>
   </g>
   <g id="patch_306">
    <path d="M 282.040519 307.584 
L 282.539221 307.584 
L 282.539221 260.064 
L 282.040519 260.064 
z
" clip-path="url(#p165f65cf81)" style="fill: #1f77b4"/>
   </g>
   <g id="patch_307">
    <path d="M 283.287273 307.584 
L 283.785974 307.584 
L 283.785974 228.384 
L 283.287273 228.384 
z
" clip-path="url(#p165f65cf81)" style="fill: #1f77b4"/>
   </g>
   <g id="patch_308">
    <path d="M 283.910649 307.584 
L 284.409351 307.584 
L 284.409351 291.744 
L 283.910649 291.744 
z
" clip-path="url(#p165f65cf81)" style="fill: #1f77b4"/>
   </g>
   <g id="patch_309">
    <path d="M 284.534026 307.584 
L 285.032727 307.584 
L 285.032727 291.744 
L 284.534026 291.744 
z
" clip-path="url(#p165f65cf81)" style="fill: #1f77b4"/>
   </g>
   <g id="patch_310">
    <path d="M 285.157403 307.584 
L 285.656104 307.584 
L 285.656104 275.904 
L 285.157403 275.904 
z
" clip-path="url(#p165f65cf81)" style="fill: #1f77b4"/>
   </g>
   <g id="patch_311">
    <path d="M 285.780779 307.584 
L 286.279481 307.584 
L 286.279481 260.064 
L 285.780779 260.064 
z
" clip-path="url(#p165f65cf81)" style="fill: #1f77b4"/>
   </g>
   <g id="patch_312">
    <path d="M 287.027532 307.584 
L 287.526234 307.584 
L 287.526234 244.224 
L 287.027532 244.224 
z
" clip-path="url(#p165f65cf81)" style="fill: #1f77b4"/>
   </g>
   <g id="patch_313">
    <path d="M 287.650909 307.584 
L 288.14961 307.584 
L 288.14961 275.904 
L 287.650909 275.904 
z
" clip-path="url(#p165f65cf81)" style="fill: #1f77b4"/>
   </g>
   <g id="patch_314">
    <path d="M 288.274286 307.584 
L 288.772987 307.584 
L 288.772987 275.904 
L 288.274286 275.904 
z
" clip-path="url(#p165f65cf81)" style="fill: #1f77b4"/>
   </g>
   <g id="patch_315">
    <path d="M 288.897662 307.584 
L 289.396364 307.584 
L 289.396364 260.064 
L 288.897662 260.064 
z
" clip-path="url(#p165f65cf81)" style="fill: #1f77b4"/>
   </g>
   <g id="patch_316">
    <path d="M 289.521039 307.584 
L 290.01974 307.584 
L 290.01974 260.064 
L 289.521039 260.064 
z
" clip-path="url(#p165f65cf81)" style="fill: #1f77b4"/>
   </g>
   <g id="patch_317">
    <path d="M 290.144416 307.584 
L 290.643117 307.584 
L 290.643117 291.744 
L 290.144416 291.744 
z
" clip-path="url(#p165f65cf81)" style="fill: #1f77b4"/>
   </g>
   <g id="patch_318">
    <path d="M 291.391169 307.584 
L 291.88987 307.584 
L 291.88987 275.904 
L 291.391169 275.904 
z
" clip-path="url(#p165f65cf81)" style="fill: #1f77b4"/>
   </g>
   <g id="patch_319">
    <path d="M 292.014545 307.584 
L 292.513247 307.584 
L 292.513247 275.904 
L 292.014545 275.904 
z
" clip-path="url(#p165f65cf81)" style="fill: #1f77b4"/>
   </g>
   <g id="patch_320">
    <path d="M 292.637922 307.584 
L 293.136623 307.584 
L 293.136623 260.064 
L 292.637922 260.064 
z
" clip-path="url(#p165f65cf81)" style="fill: #1f77b4"/>
   </g>
   <g id="patch_321">
    <path d="M 293.261299 307.584 
L 293.76 307.584 
L 293.76 244.224 
L 293.261299 244.224 
z
" clip-path="url(#p165f65cf81)" style="fill: #1f77b4"/>
   </g>
   <g id="patch_322">
    <path d="M 293.884675 307.584 
L 294.383377 307.584 
L 294.383377 291.744 
L 293.884675 291.744 
z
" clip-path="url(#p165f65cf81)" style="fill: #1f77b4"/>
   </g>
   <g id="patch_323">
    <path d="M 295.131429 307.584 
L 295.63013 307.584 
L 295.63013 244.224 
L 295.131429 244.224 
z
" clip-path="url(#p165f65cf81)" style="fill: #1f77b4"/>
   </g>
   <g id="patch_324">
    <path d="M 295.754805 307.584 
L 296.253506 307.584 
L 296.253506 275.904 
L 295.754805 275.904 
z
" clip-path="url(#p165f65cf81)" style="fill: #1f77b4"/>
   </g>
   <g id="patch_325">
    <path d="M 297.001558 307.584 
L 297.50026 307.584 
L 297.50026 275.904 
L 297.001558 275.904 
z
" clip-path="url(#p165f65cf81)" style="fill: #1f77b4"/>
   </g>
   <g id="patch_326">
    <path d="M 297.624935 307.584 
L 298.123636 307.584 
L 298.123636 291.744 
L 297.624935 291.744 
z
" clip-path="url(#p165f65cf81)" style="fill: #1f77b4"/>
   </g>
   <g id="patch_327">
    <path d="M 298.248312 307.584 
L 298.747013 307.584 
L 298.747013 291.744 
L 298.248312 291.744 
z
" clip-path="url(#p165f65cf81)" style="fill: #1f77b4"/>
   </g>
   <g id="patch_328">
    <path d="M 298.871688 307.584 
L 299.37039 307.584 
L 299.37039 291.744 
L 298.871688 291.744 
z
" clip-path="url(#p165f65cf81)" style="fill: #1f77b4"/>
   </g>
   <g id="patch_329">
    <path d="M 299.495065 307.584 
L 299.993766 307.584 
L 299.993766 275.904 
L 299.495065 275.904 
z
" clip-path="url(#p165f65cf81)" style="fill: #1f77b4"/>
   </g>
   <g id="patch_330">
    <path d="M 300.118442 307.584 
L 300.617143 307.584 
L 300.617143 291.744 
L 300.118442 291.744 
z
" clip-path="url(#p165f65cf81)" style="fill: #1f77b4"/>
   </g>
   <g id="patch_331">
    <path d="M 300.741818 307.584 
L 301.240519 307.584 
L 301.240519 275.904 
L 300.741818 275.904 
z
" clip-path="url(#p165f65cf81)" style="fill: #1f77b4"/>
   </g>
   <g id="patch_332">
    <path d="M 301.365195 307.584 
L 301.863896 307.584 
L 301.863896 275.904 
L 301.365195 275.904 
z
" clip-path="url(#p165f65cf81)" style="fill: #1f77b4"/>
   </g>
   <g id="patch_333">
    <path d="M 301.988571 307.584 
L 302.487273 307.584 
L 302.487273 291.744 
L 301.988571 291.744 
z
" clip-path="url(#p165f65cf81)" style="fill: #1f77b4"/>
   </g>
   <g id="patch_334">
    <path d="M 302.611948 307.584 
L 303.110649 307.584 
L 303.110649 291.744 
L 302.611948 291.744 
z
" clip-path="url(#p165f65cf81)" style="fill: #1f77b4"/>
   </g>
   <g id="patch_335">
    <path d="M 303.858701 307.584 
L 304.357403 307.584 
L 304.357403 291.744 
L 303.858701 291.744 
z
" clip-path="url(#p165f65cf81)" style="fill: #1f77b4"/>
   </g>
   <g id="patch_336">
    <path d="M 306.352208 307.584 
L 306.850909 307.584 
L 306.850909 260.064 
L 306.352208 260.064 
z
" clip-path="url(#p165f65cf81)" style="fill: #1f77b4"/>
   </g>
   <g id="patch_337">
    <path d="M 306.975584 307.584 
L 307.474286 307.584 
L 307.474286 275.904 
L 306.975584 275.904 
z
" clip-path="url(#p165f65cf81)" style="fill: #1f77b4"/>
   </g>
   <g id="patch_338">
    <path d="M 308.222338 307.584 
L 308.721039 307.584 
L 308.721039 291.744 
L 308.222338 291.744 
z
" clip-path="url(#p165f65cf81)" style="fill: #1f77b4"/>
   </g>
   <g id="patch_339">
    <path d="M 308.845714 307.584 
L 309.344416 307.584 
L 309.344416 275.904 
L 308.845714 275.904 
z
" clip-path="url(#p165f65cf81)" style="fill: #1f77b4"/>
   </g>
   <g id="patch_340">
    <path d="M 310.092468 307.584 
L 310.591169 307.584 
L 310.591169 291.744 
L 310.092468 291.744 
z
" clip-path="url(#p165f65cf81)" style="fill: #1f77b4"/>
   </g>
   <g id="patch_341">
    <path d="M 310.715844 307.584 
L 311.214545 307.584 
L 311.214545 291.744 
L 310.715844 291.744 
z
" clip-path="url(#p165f65cf81)" style="fill: #1f77b4"/>
   </g>
   <g id="patch_342">
    <path d="M 311.962597 307.584 
L 312.461299 307.584 
L 312.461299 291.744 
L 311.962597 291.744 
z
" clip-path="url(#p165f65cf81)" style="fill: #1f77b4"/>
   </g>
   <g id="patch_343">
    <path d="M 312.585974 307.584 
L 313.084675 307.584 
L 313.084675 291.744 
L 312.585974 291.744 
z
" clip-path="url(#p165f65cf81)" style="fill: #1f77b4"/>
   </g>
   <g id="patch_344">
    <path d="M 313.832727 307.584 
L 314.331429 307.584 
L 314.331429 291.744 
L 313.832727 291.744 
z
" clip-path="url(#p165f65cf81)" style="fill: #1f77b4"/>
   </g>
   <g id="patch_345">
    <path d="M 314.456104 307.584 
L 314.954805 307.584 
L 314.954805 275.904 
L 314.456104 275.904 
z
" clip-path="url(#p165f65cf81)" style="fill: #1f77b4"/>
   </g>
   <g id="patch_346">
    <path d="M 315.702857 307.584 
L 316.201558 307.584 
L 316.201558 291.744 
L 315.702857 291.744 
z
" clip-path="url(#p165f65cf81)" style="fill: #1f77b4"/>
   </g>
   <g id="patch_347">
    <path d="M 316.326234 307.584 
L 316.824935 307.584 
L 316.824935 291.744 
L 316.326234 291.744 
z
" clip-path="url(#p165f65cf81)" style="fill: #1f77b4"/>
   </g>
   <g id="patch_348">
    <path d="M 320.066494 307.584 
L 320.565195 307.584 
L 320.565195 291.744 
L 320.066494 291.744 
z
" clip-path="url(#p165f65cf81)" style="fill: #1f77b4"/>
   </g>
   <g id="patch_349">
    <path d="M 321.936623 307.584 
L 322.435325 307.584 
L 322.435325 291.744 
L 321.936623 291.744 
z
" clip-path="url(#p165f65cf81)" style="fill: #1f77b4"/>
   </g>
   <g id="patch_350">
    <path d="M 322.56 307.584 
L 323.058701 307.584 
L 323.058701 291.744 
L 322.56 291.744 
z
" clip-path="url(#p165f65cf81)" style="fill: #1f77b4"/>
   </g>
   <g id="patch_351">
    <path d="M 324.43013 307.584 
L 324.928831 307.584 
L 324.928831 291.744 
L 324.43013 291.744 
z
" clip-path="url(#p165f65cf81)" style="fill: #1f77b4"/>
   </g>
   <g id="patch_352">
    <path d="M 325.053506 307.584 
L 325.552208 307.584 
L 325.552208 275.904 
L 325.053506 275.904 
z
" clip-path="url(#p165f65cf81)" style="fill: #1f77b4"/>
   </g>
   <g id="patch_353">
    <path d="M 326.30026 307.584 
L 326.798961 307.584 
L 326.798961 291.744 
L 326.30026 291.744 
z
" clip-path="url(#p165f65cf81)" style="fill: #1f77b4"/>
   </g>
   <g id="patch_354">
    <path d="M 327.547013 307.584 
L 328.045714 307.584 
L 328.045714 291.744 
L 327.547013 291.744 
z
" clip-path="url(#p165f65cf81)" style="fill: #1f77b4"/>
   </g>
   <g id="patch_355">
    <path d="M 328.793766 307.584 
L 329.292468 307.584 
L 329.292468 291.744 
L 328.793766 291.744 
z
" clip-path="url(#p165f65cf81)" style="fill: #1f77b4"/>
   </g>
   <g id="patch_356">
    <path d="M 330.040519 307.584 
L 330.539221 307.584 
L 330.539221 291.744 
L 330.040519 291.744 
z
" clip-path="url(#p165f65cf81)" style="fill: #1f77b4"/>
   </g>
   <g id="patch_357">
    <path d="M 330.663896 307.584 
L 331.162597 307.584 
L 331.162597 291.744 
L 330.663896 291.744 
z
" clip-path="url(#p165f65cf81)" style="fill: #1f77b4"/>
   </g>
   <g id="patch_358">
    <path d="M 332.534026 307.584 
L 333.032727 307.584 
L 333.032727 291.744 
L 332.534026 291.744 
z
" clip-path="url(#p165f65cf81)" style="fill: #1f77b4"/>
   </g>
   <g id="patch_359">
    <path d="M 335.650909 307.584 
L 336.14961 307.584 
L 336.14961 291.744 
L 335.650909 291.744 
z
" clip-path="url(#p165f65cf81)" style="fill: #1f77b4"/>
   </g>
   <g id="patch_360">
    <path d="M 340.014545 307.584 
L 340.513247 307.584 
L 340.513247 291.744 
L 340.014545 291.744 
z
" clip-path="url(#p165f65cf81)" style="fill: #1f77b4"/>
   </g>
   <g id="patch_361">
    <path d="M 341.261299 307.584 
L 341.76 307.584 
L 341.76 291.744 
L 341.261299 291.744 
z
" clip-path="url(#p165f65cf81)" style="fill: #1f77b4"/>
   </g>
   <g id="patch_362">
    <path d="M 344.378182 307.584 
L 344.876883 307.584 
L 344.876883 291.744 
L 344.378182 291.744 
z
" clip-path="url(#p165f65cf81)" style="fill: #1f77b4"/>
   </g>
   <g id="patch_363">
    <path d="M 346.248312 307.584 
L 346.747013 307.584 
L 346.747013 275.904 
L 346.248312 275.904 
z
" clip-path="url(#p165f65cf81)" style="fill: #1f77b4"/>
   </g>
   <g id="patch_364">
    <path d="M 349.988571 307.584 
L 350.487273 307.584 
L 350.487273 275.904 
L 349.988571 275.904 
z
" clip-path="url(#p165f65cf81)" style="fill: #1f77b4"/>
   </g>
   <g id="patch_365">
    <path d="M 356.222338 307.584 
L 356.721039 307.584 
L 356.721039 275.904 
L 356.222338 275.904 
z
" clip-path="url(#p165f65cf81)" style="fill: #1f77b4"/>
   </g>
   <g id="patch_366">
    <path d="M 357.469091 307.584 
L 357.967792 307.584 
L 357.967792 291.744 
L 357.469091 291.744 
z
" clip-path="url(#p165f65cf81)" style="fill: #1f77b4"/>
   </g>
   <g id="patch_367">
    <path d="M 367.443117 307.584 
L 367.941818 307.584 
L 367.941818 275.904 
L 367.443117 275.904 
z
" clip-path="url(#p165f65cf81)" style="fill: #1f77b4"/>
   </g>
   <g id="patch_368">
    <path d="M 369.936623 307.584 
L 370.435325 307.584 
L 370.435325 291.744 
L 369.936623 291.744 
z
" clip-path="url(#p165f65cf81)" style="fill: #1f77b4"/>
   </g>
   <g id="patch_369">
    <path d="M 373.676883 307.584 
L 374.175584 307.584 
L 374.175584 291.744 
L 373.676883 291.744 
z
" clip-path="url(#p165f65cf81)" style="fill: #1f77b4"/>
   </g>
   <g id="patch_370">
    <path d="M 392.378182 307.584 
L 392.876883 307.584 
L 392.876883 291.744 
L 392.378182 291.744 
z
" clip-path="url(#p165f65cf81)" style="fill: #1f77b4"/>
   </g>
   <g id="patch_371">
    <path d="M 397.988571 307.584 
L 398.487273 307.584 
L 398.487273 291.744 
L 397.988571 291.744 
z
" clip-path="url(#p165f65cf81)" style="fill: #1f77b4"/>
   </g>
   <g id="matplotlib.axis_1">
    <g id="xtick_1">
     <g id="line2d_1">
      <path d="M 74.705455 307.584 
L 74.705455 41.472 
" clip-path="url(#p165f65cf81)" style="fill: none; stroke: #b0b0b0; stroke-width: 0.8; stroke-linecap: square"/>
     </g>
     <g id="line2d_2">
      <defs>
       <path id="m7acae640cf" d="M 0 0 
L 0 3.5 
" style="stroke: #000000; stroke-width: 0.8"/>
      </defs>
      <g>
       <use xlink:href="#m7acae640cf" x="74.705455" y="307.584" style="stroke: #000000; stroke-width: 0.8"/>
      </g>
     </g>
     <g id="text_1">
      <!-- 200 -->
      <g transform="translate(65.161705 322.182437) scale(0.1 -0.1)">
       <defs>
        <path id="DejaVuSans-32" d="M 1228 531 
L 3431 531 
L 3431 0 
L 469 0 
L 469 531 
Q 828 903 1448 1529 
Q 2069 2156 2228 2338 
Q 2531 2678 2651 2914 
Q 2772 3150 2772 3378 
Q 2772 3750 2511 3984 
Q 2250 4219 1831 4219 
Q 1534 4219 1204 4116 
Q 875 4013 500 3803 
L 500 4441 
Q 881 4594 1212 4672 
Q 1544 4750 1819 4750 
Q 2544 4750 2975 4387 
Q 3406 4025 3406 3419 
Q 3406 3131 3298 2873 
Q 3191 2616 2906 2266 
Q 2828 2175 2409 1742 
Q 1991 1309 1228 531 
z
" transform="scale(0.015625)"/>
        <path id="DejaVuSans-30" d="M 2034 4250 
Q 1547 4250 1301 3770 
Q 1056 3291 1056 2328 
Q 1056 1369 1301 889 
Q 1547 409 2034 409 
Q 2525 409 2770 889 
Q 3016 1369 3016 2328 
Q 3016 3291 2770 3770 
Q 2525 4250 2034 4250 
z
M 2034 4750 
Q 2819 4750 3233 4129 
Q 3647 3509 3647 2328 
Q 3647 1150 3233 529 
Q 2819 -91 2034 -91 
Q 1250 -91 836 529 
Q 422 1150 422 2328 
Q 422 3509 836 4129 
Q 1250 4750 2034 4750 
z
" transform="scale(0.015625)"/>
       </defs>
       <use xlink:href="#DejaVuSans-32"/>
       <use xlink:href="#DejaVuSans-30" x="63.623047"/>
       <use xlink:href="#DejaVuSans-30" x="127.246094"/>
      </g>
     </g>
    </g>
    <g id="xtick_2">
     <g id="line2d_3">
      <path d="M 137.043117 307.584 
L 137.043117 41.472 
" clip-path="url(#p165f65cf81)" style="fill: none; stroke: #b0b0b0; stroke-width: 0.8; stroke-linecap: square"/>
     </g>
     <g id="line2d_4">
      <g>
       <use xlink:href="#m7acae640cf" x="137.043117" y="307.584" style="stroke: #000000; stroke-width: 0.8"/>
      </g>
     </g>
     <g id="text_2">
      <!-- 300 -->
      <g transform="translate(127.499367 322.182437) scale(0.1 -0.1)">
       <defs>
        <path id="DejaVuSans-33" d="M 2597 2516 
Q 3050 2419 3304 2112 
Q 3559 1806 3559 1356 
Q 3559 666 3084 287 
Q 2609 -91 1734 -91 
Q 1441 -91 1130 -33 
Q 819 25 488 141 
L 488 750 
Q 750 597 1062 519 
Q 1375 441 1716 441 
Q 2309 441 2620 675 
Q 2931 909 2931 1356 
Q 2931 1769 2642 2001 
Q 2353 2234 1838 2234 
L 1294 2234 
L 1294 2753 
L 1863 2753 
Q 2328 2753 2575 2939 
Q 2822 3125 2822 3475 
Q 2822 3834 2567 4026 
Q 2313 4219 1838 4219 
Q 1578 4219 1281 4162 
Q 984 4106 628 3988 
L 628 4550 
Q 988 4650 1302 4700 
Q 1616 4750 1894 4750 
Q 2613 4750 3031 4423 
Q 3450 4097 3450 3541 
Q 3450 3153 3228 2886 
Q 3006 2619 2597 2516 
z
" transform="scale(0.015625)"/>
       </defs>
       <use xlink:href="#DejaVuSans-33"/>
       <use xlink:href="#DejaVuSans-30" x="63.623047"/>
       <use xlink:href="#DejaVuSans-30" x="127.246094"/>
      </g>
     </g>
    </g>
    <g id="xtick_3">
     <g id="line2d_5">
      <path d="M 199.380779 307.584 
L 199.380779 41.472 
" clip-path="url(#p165f65cf81)" style="fill: none; stroke: #b0b0b0; stroke-width: 0.8; stroke-linecap: square"/>
     </g>
     <g id="line2d_6">
      <g>
       <use xlink:href="#m7acae640cf" x="199.380779" y="307.584" style="stroke: #000000; stroke-width: 0.8"/>
      </g>
     </g>
     <g id="text_3">
      <!-- 400 -->
      <g transform="translate(189.837029 322.182437) scale(0.1 -0.1)">
       <defs>
        <path id="DejaVuSans-34" d="M 2419 4116 
L 825 1625 
L 2419 1625 
L 2419 4116 
z
M 2253 4666 
L 3047 4666 
L 3047 1625 
L 3713 1625 
L 3713 1100 
L 3047 1100 
L 3047 0 
L 2419 0 
L 2419 1100 
L 313 1100 
L 313 1709 
L 2253 4666 
z
" transform="scale(0.015625)"/>
       </defs>
       <use xlink:href="#DejaVuSans-34"/>
       <use xlink:href="#DejaVuSans-30" x="63.623047"/>
       <use xlink:href="#DejaVuSans-30" x="127.246094"/>
      </g>
     </g>
    </g>
    <g id="xtick_4">
     <g id="line2d_7">
      <path d="M 261.718442 307.584 
L 261.718442 41.472 
" clip-path="url(#p165f65cf81)" style="fill: none; stroke: #b0b0b0; stroke-width: 0.8; stroke-linecap: square"/>
     </g>
     <g id="line2d_8">
      <g>
       <use xlink:href="#m7acae640cf" x="261.718442" y="307.584" style="stroke: #000000; stroke-width: 0.8"/>
      </g>
     </g>
     <g id="text_4">
      <!-- 500 -->
      <g transform="translate(252.174692 322.182437) scale(0.1 -0.1)">
       <defs>
        <path id="DejaVuSans-35" d="M 691 4666 
L 3169 4666 
L 3169 4134 
L 1269 4134 
L 1269 2991 
Q 1406 3038 1543 3061 
Q 1681 3084 1819 3084 
Q 2600 3084 3056 2656 
Q 3513 2228 3513 1497 
Q 3513 744 3044 326 
Q 2575 -91 1722 -91 
Q 1428 -91 1123 -41 
Q 819 9 494 109 
L 494 744 
Q 775 591 1075 516 
Q 1375 441 1709 441 
Q 2250 441 2565 725 
Q 2881 1009 2881 1497 
Q 2881 1984 2565 2268 
Q 2250 2553 1709 2553 
Q 1456 2553 1204 2497 
Q 953 2441 691 2322 
L 691 4666 
z
" transform="scale(0.015625)"/>
       </defs>
       <use xlink:href="#DejaVuSans-35"/>
       <use xlink:href="#DejaVuSans-30" x="63.623047"/>
       <use xlink:href="#DejaVuSans-30" x="127.246094"/>
      </g>
     </g>
    </g>
    <g id="xtick_5">
     <g id="line2d_9">
      <path d="M 324.056104 307.584 
L 324.056104 41.472 
" clip-path="url(#p165f65cf81)" style="fill: none; stroke: #b0b0b0; stroke-width: 0.8; stroke-linecap: square"/>
     </g>
     <g id="line2d_10">
      <g>
       <use xlink:href="#m7acae640cf" x="324.056104" y="307.584" style="stroke: #000000; stroke-width: 0.8"/>
      </g>
     </g>
     <g id="text_5">
      <!-- 600 -->
      <g transform="translate(314.512354 322.182437) scale(0.1 -0.1)">
       <defs>
        <path id="DejaVuSans-36" d="M 2113 2584 
Q 1688 2584 1439 2293 
Q 1191 2003 1191 1497 
Q 1191 994 1439 701 
Q 1688 409 2113 409 
Q 2538 409 2786 701 
Q 3034 994 3034 1497 
Q 3034 2003 2786 2293 
Q 2538 2584 2113 2584 
z
M 3366 4563 
L 3366 3988 
Q 3128 4100 2886 4159 
Q 2644 4219 2406 4219 
Q 1781 4219 1451 3797 
Q 1122 3375 1075 2522 
Q 1259 2794 1537 2939 
Q 1816 3084 2150 3084 
Q 2853 3084 3261 2657 
Q 3669 2231 3669 1497 
Q 3669 778 3244 343 
Q 2819 -91 2113 -91 
Q 1303 -91 875 529 
Q 447 1150 447 2328 
Q 447 3434 972 4092 
Q 1497 4750 2381 4750 
Q 2619 4750 2861 4703 
Q 3103 4656 3366 4563 
z
" transform="scale(0.015625)"/>
       </defs>
       <use xlink:href="#DejaVuSans-36"/>
       <use xlink:href="#DejaVuSans-30" x="63.623047"/>
       <use xlink:href="#DejaVuSans-30" x="127.246094"/>
      </g>
     </g>
    </g>
    <g id="xtick_6">
     <g id="line2d_11">
      <path d="M 386.393766 307.584 
L 386.393766 41.472 
" clip-path="url(#p165f65cf81)" style="fill: none; stroke: #b0b0b0; stroke-width: 0.8; stroke-linecap: square"/>
     </g>
     <g id="line2d_12">
      <g>
       <use xlink:href="#m7acae640cf" x="386.393766" y="307.584" style="stroke: #000000; stroke-width: 0.8"/>
      </g>
     </g>
     <g id="text_6">
      <!-- 700 -->
      <g transform="translate(376.850016 322.182437) scale(0.1 -0.1)">
       <defs>
        <path id="DejaVuSans-37" d="M 525 4666 
L 3525 4666 
L 3525 4397 
L 1831 0 
L 1172 0 
L 2766 4134 
L 525 4134 
L 525 4666 
z
" transform="scale(0.015625)"/>
       </defs>
       <use xlink:href="#DejaVuSans-37"/>
       <use xlink:href="#DejaVuSans-30" x="63.623047"/>
       <use xlink:href="#DejaVuSans-30" x="127.246094"/>
      </g>
     </g>
    </g>
    <g id="text_7">
     <!-- Length of QRELs (in tokens) -->
     <g transform="translate(166.734219 335.860562) scale(0.1 -0.1)">
      <defs>
       <path id="DejaVuSans-4c" d="M 628 4666 
L 1259 4666 
L 1259 531 
L 3531 531 
L 3531 0 
L 628 0 
L 628 4666 
z
" transform="scale(0.015625)"/>
       <path id="DejaVuSans-65" d="M 3597 1894 
L 3597 1613 
L 953 1613 
Q 991 1019 1311 708 
Q 1631 397 2203 397 
Q 2534 397 2845 478 
Q 3156 559 3463 722 
L 3463 178 
Q 3153 47 2828 -22 
Q 2503 -91 2169 -91 
Q 1331 -91 842 396 
Q 353 884 353 1716 
Q 353 2575 817 3079 
Q 1281 3584 2069 3584 
Q 2775 3584 3186 3129 
Q 3597 2675 3597 1894 
z
M 3022 2063 
Q 3016 2534 2758 2815 
Q 2500 3097 2075 3097 
Q 1594 3097 1305 2825 
Q 1016 2553 972 2059 
L 3022 2063 
z
" transform="scale(0.015625)"/>
       <path id="DejaVuSans-6e" d="M 3513 2113 
L 3513 0 
L 2938 0 
L 2938 2094 
Q 2938 2591 2744 2837 
Q 2550 3084 2163 3084 
Q 1697 3084 1428 2787 
Q 1159 2491 1159 1978 
L 1159 0 
L 581 0 
L 581 3500 
L 1159 3500 
L 1159 2956 
Q 1366 3272 1645 3428 
Q 1925 3584 2291 3584 
Q 2894 3584 3203 3211 
Q 3513 2838 3513 2113 
z
" transform="scale(0.015625)"/>
       <path id="DejaVuSans-67" d="M 2906 1791 
Q 2906 2416 2648 2759 
Q 2391 3103 1925 3103 
Q 1463 3103 1205 2759 
Q 947 2416 947 1791 
Q 947 1169 1205 825 
Q 1463 481 1925 481 
Q 2391 481 2648 825 
Q 2906 1169 2906 1791 
z
M 3481 434 
Q 3481 -459 3084 -895 
Q 2688 -1331 1869 -1331 
Q 1566 -1331 1297 -1286 
Q 1028 -1241 775 -1147 
L 775 -588 
Q 1028 -725 1275 -790 
Q 1522 -856 1778 -856 
Q 2344 -856 2625 -561 
Q 2906 -266 2906 331 
L 2906 616 
Q 2728 306 2450 153 
Q 2172 0 1784 0 
Q 1141 0 747 490 
Q 353 981 353 1791 
Q 353 2603 747 3093 
Q 1141 3584 1784 3584 
Q 2172 3584 2450 3431 
Q 2728 3278 2906 2969 
L 2906 3500 
L 3481 3500 
L 3481 434 
z
" transform="scale(0.015625)"/>
       <path id="DejaVuSans-74" d="M 1172 4494 
L 1172 3500 
L 2356 3500 
L 2356 3053 
L 1172 3053 
L 1172 1153 
Q 1172 725 1289 603 
Q 1406 481 1766 481 
L 2356 481 
L 2356 0 
L 1766 0 
Q 1100 0 847 248 
Q 594 497 594 1153 
L 594 3053 
L 172 3053 
L 172 3500 
L 594 3500 
L 594 4494 
L 1172 4494 
z
" transform="scale(0.015625)"/>
       <path id="DejaVuSans-68" d="M 3513 2113 
L 3513 0 
L 2938 0 
L 2938 2094 
Q 2938 2591 2744 2837 
Q 2550 3084 2163 3084 
Q 1697 3084 1428 2787 
Q 1159 2491 1159 1978 
L 1159 0 
L 581 0 
L 581 4863 
L 1159 4863 
L 1159 2956 
Q 1366 3272 1645 3428 
Q 1925 3584 2291 3584 
Q 2894 3584 3203 3211 
Q 3513 2838 3513 2113 
z
" transform="scale(0.015625)"/>
       <path id="DejaVuSans-20" transform="scale(0.015625)"/>
       <path id="DejaVuSans-6f" d="M 1959 3097 
Q 1497 3097 1228 2736 
Q 959 2375 959 1747 
Q 959 1119 1226 758 
Q 1494 397 1959 397 
Q 2419 397 2687 759 
Q 2956 1122 2956 1747 
Q 2956 2369 2687 2733 
Q 2419 3097 1959 3097 
z
M 1959 3584 
Q 2709 3584 3137 3096 
Q 3566 2609 3566 1747 
Q 3566 888 3137 398 
Q 2709 -91 1959 -91 
Q 1206 -91 779 398 
Q 353 888 353 1747 
Q 353 2609 779 3096 
Q 1206 3584 1959 3584 
z
" transform="scale(0.015625)"/>
       <path id="DejaVuSans-66" d="M 2375 4863 
L 2375 4384 
L 1825 4384 
Q 1516 4384 1395 4259 
Q 1275 4134 1275 3809 
L 1275 3500 
L 2222 3500 
L 2222 3053 
L 1275 3053 
L 1275 0 
L 697 0 
L 697 3053 
L 147 3053 
L 147 3500 
L 697 3500 
L 697 3744 
Q 697 4328 969 4595 
Q 1241 4863 1831 4863 
L 2375 4863 
z
" transform="scale(0.015625)"/>
       <path id="DejaVuSans-51" d="M 2522 4238 
Q 1834 4238 1429 3725 
Q 1025 3213 1025 2328 
Q 1025 1447 1429 934 
Q 1834 422 2522 422 
Q 3209 422 3611 934 
Q 4013 1447 4013 2328 
Q 4013 3213 3611 3725 
Q 3209 4238 2522 4238 
z
M 3406 84 
L 4238 -825 
L 3475 -825 
L 2784 -78 
Q 2681 -84 2626 -87 
Q 2572 -91 2522 -91 
Q 1538 -91 948 567 
Q 359 1225 359 2328 
Q 359 3434 948 4092 
Q 1538 4750 2522 4750 
Q 3503 4750 4090 4092 
Q 4678 3434 4678 2328 
Q 4678 1516 4351 937 
Q 4025 359 3406 84 
z
" transform="scale(0.015625)"/>
       <path id="DejaVuSans-52" d="M 2841 2188 
Q 3044 2119 3236 1894 
Q 3428 1669 3622 1275 
L 4263 0 
L 3584 0 
L 2988 1197 
Q 2756 1666 2539 1819 
Q 2322 1972 1947 1972 
L 1259 1972 
L 1259 0 
L 628 0 
L 628 4666 
L 2053 4666 
Q 2853 4666 3247 4331 
Q 3641 3997 3641 3322 
Q 3641 2881 3436 2590 
Q 3231 2300 2841 2188 
z
M 1259 4147 
L 1259 2491 
L 2053 2491 
Q 2509 2491 2742 2702 
Q 2975 2913 2975 3322 
Q 2975 3731 2742 3939 
Q 2509 4147 2053 4147 
L 1259 4147 
z
" transform="scale(0.015625)"/>
       <path id="DejaVuSans-45" d="M 628 4666 
L 3578 4666 
L 3578 4134 
L 1259 4134 
L 1259 2753 
L 3481 2753 
L 3481 2222 
L 1259 2222 
L 1259 531 
L 3634 531 
L 3634 0 
L 628 0 
L 628 4666 
z
" transform="scale(0.015625)"/>
       <path id="DejaVuSans-73" d="M 2834 3397 
L 2834 2853 
Q 2591 2978 2328 3040 
Q 2066 3103 1784 3103 
Q 1356 3103 1142 2972 
Q 928 2841 928 2578 
Q 928 2378 1081 2264 
Q 1234 2150 1697 2047 
L 1894 2003 
Q 2506 1872 2764 1633 
Q 3022 1394 3022 966 
Q 3022 478 2636 193 
Q 2250 -91 1575 -91 
Q 1294 -91 989 -36 
Q 684 19 347 128 
L 347 722 
Q 666 556 975 473 
Q 1284 391 1588 391 
Q 1994 391 2212 530 
Q 2431 669 2431 922 
Q 2431 1156 2273 1281 
Q 2116 1406 1581 1522 
L 1381 1569 
Q 847 1681 609 1914 
Q 372 2147 372 2553 
Q 372 3047 722 3315 
Q 1072 3584 1716 3584 
Q 2034 3584 2315 3537 
Q 2597 3491 2834 3397 
z
" transform="scale(0.015625)"/>
       <path id="DejaVuSans-28" d="M 1984 4856 
Q 1566 4138 1362 3434 
Q 1159 2731 1159 2009 
Q 1159 1288 1364 580 
Q 1569 -128 1984 -844 
L 1484 -844 
Q 1016 -109 783 600 
Q 550 1309 550 2009 
Q 550 2706 781 3412 
Q 1013 4119 1484 4856 
L 1984 4856 
z
" transform="scale(0.015625)"/>
       <path id="DejaVuSans-69" d="M 603 3500 
L 1178 3500 
L 1178 0 
L 603 0 
L 603 3500 
z
M 603 4863 
L 1178 4863 
L 1178 4134 
L 603 4134 
L 603 4863 
z
" transform="scale(0.015625)"/>
       <path id="DejaVuSans-6b" d="M 581 4863 
L 1159 4863 
L 1159 1991 
L 2875 3500 
L 3609 3500 
L 1753 1863 
L 3688 0 
L 2938 0 
L 1159 1709 
L 1159 0 
L 581 0 
L 581 4863 
z
" transform="scale(0.015625)"/>
       <path id="DejaVuSans-29" d="M 513 4856 
L 1013 4856 
Q 1481 4119 1714 3412 
Q 1947 2706 1947 2009 
Q 1947 1309 1714 600 
Q 1481 -109 1013 -844 
L 513 -844 
Q 928 -128 1133 580 
Q 1338 1288 1338 2009 
Q 1338 2731 1133 3434 
Q 928 4138 513 4856 
z
" transform="scale(0.015625)"/>
      </defs>
      <use xlink:href="#DejaVuSans-4c"/>
      <use xlink:href="#DejaVuSans-65" x="53.962891"/>
      <use xlink:href="#DejaVuSans-6e" x="115.486328"/>
      <use xlink:href="#DejaVuSans-67" x="178.865234"/>
      <use xlink:href="#DejaVuSans-74" x="242.341797"/>
      <use xlink:href="#DejaVuSans-68" x="281.550781"/>
      <use xlink:href="#DejaVuSans-20" x="344.929688"/>
      <use xlink:href="#DejaVuSans-6f" x="376.716797"/>
      <use xlink:href="#DejaVuSans-66" x="437.898438"/>
      <use xlink:href="#DejaVuSans-20" x="473.103516"/>
      <use xlink:href="#DejaVuSans-51" x="504.890625"/>
      <use xlink:href="#DejaVuSans-52" x="583.601562"/>
      <use xlink:href="#DejaVuSans-45" x="653.083984"/>
      <use xlink:href="#DejaVuSans-4c" x="716.267578"/>
      <use xlink:href="#DejaVuSans-73" x="771.980469"/>
      <use xlink:href="#DejaVuSans-20" x="824.080078"/>
      <use xlink:href="#DejaVuSans-28" x="855.867188"/>
      <use xlink:href="#DejaVuSans-69" x="894.880859"/>
      <use xlink:href="#DejaVuSans-6e" x="922.664062"/>
      <use xlink:href="#DejaVuSans-20" x="986.042969"/>
      <use xlink:href="#DejaVuSans-74" x="1017.830078"/>
      <use xlink:href="#DejaVuSans-6f" x="1057.039062"/>
      <use xlink:href="#DejaVuSans-6b" x="1118.220703"/>
      <use xlink:href="#DejaVuSans-65" x="1172.505859"/>
      <use xlink:href="#DejaVuSans-6e" x="1234.029297"/>
      <use xlink:href="#DejaVuSans-73" x="1297.408203"/>
      <use xlink:href="#DejaVuSans-29" x="1349.507812"/>
     </g>
    </g>
   </g>
   <g id="matplotlib.axis_2">
    <g id="ytick_1">
     <g id="line2d_13">
      <path d="M 57.6 307.584 
L 414.72 307.584 
" clip-path="url(#p165f65cf81)" style="fill: none; stroke: #b0b0b0; stroke-width: 0.8; stroke-linecap: square"/>
     </g>
     <g id="line2d_14">
      <defs>
       <path id="mbee817a0dd" d="M 0 0 
L -3.5 0 
" style="stroke: #000000; stroke-width: 0.8"/>
      </defs>
      <g>
       <use xlink:href="#mbee817a0dd" x="57.6" y="307.584" style="stroke: #000000; stroke-width: 0.8"/>
      </g>
     </g>
     <g id="text_8">
      <!-- 0 -->
      <g transform="translate(44.2375 311.383219) scale(0.1 -0.1)">
       <use xlink:href="#DejaVuSans-30"/>
      </g>
     </g>
    </g>
    <g id="ytick_2">
     <g id="line2d_15">
      <path d="M 57.6 275.904 
L 414.72 275.904 
" clip-path="url(#p165f65cf81)" style="fill: none; stroke: #b0b0b0; stroke-width: 0.8; stroke-linecap: square"/>
     </g>
     <g id="line2d_16">
      <g>
       <use xlink:href="#mbee817a0dd" x="57.6" y="275.904" style="stroke: #000000; stroke-width: 0.8"/>
      </g>
     </g>
     <g id="text_9">
      <!-- 2 -->
      <g transform="translate(44.2375 279.703219) scale(0.1 -0.1)">
       <use xlink:href="#DejaVuSans-32"/>
      </g>
     </g>
    </g>
    <g id="ytick_3">
     <g id="line2d_17">
      <path d="M 57.6 244.224 
L 414.72 244.224 
" clip-path="url(#p165f65cf81)" style="fill: none; stroke: #b0b0b0; stroke-width: 0.8; stroke-linecap: square"/>
     </g>
     <g id="line2d_18">
      <g>
       <use xlink:href="#mbee817a0dd" x="57.6" y="244.224" style="stroke: #000000; stroke-width: 0.8"/>
      </g>
     </g>
     <g id="text_10">
      <!-- 4 -->
      <g transform="translate(44.2375 248.023219) scale(0.1 -0.1)">
       <use xlink:href="#DejaVuSans-34"/>
      </g>
     </g>
    </g>
    <g id="ytick_4">
     <g id="line2d_19">
      <path d="M 57.6 212.544 
L 414.72 212.544 
" clip-path="url(#p165f65cf81)" style="fill: none; stroke: #b0b0b0; stroke-width: 0.8; stroke-linecap: square"/>
     </g>
     <g id="line2d_20">
      <g>
       <use xlink:href="#mbee817a0dd" x="57.6" y="212.544" style="stroke: #000000; stroke-width: 0.8"/>
      </g>
     </g>
     <g id="text_11">
      <!-- 6 -->
      <g transform="translate(44.2375 216.343219) scale(0.1 -0.1)">
       <use xlink:href="#DejaVuSans-36"/>
      </g>
     </g>
    </g>
    <g id="ytick_5">
     <g id="line2d_21">
      <path d="M 57.6 180.864 
L 414.72 180.864 
" clip-path="url(#p165f65cf81)" style="fill: none; stroke: #b0b0b0; stroke-width: 0.8; stroke-linecap: square"/>
     </g>
     <g id="line2d_22">
      <g>
       <use xlink:href="#mbee817a0dd" x="57.6" y="180.864" style="stroke: #000000; stroke-width: 0.8"/>
      </g>
     </g>
     <g id="text_12">
      <!-- 8 -->
      <g transform="translate(44.2375 184.663219) scale(0.1 -0.1)">
       <defs>
        <path id="DejaVuSans-38" d="M 2034 2216 
Q 1584 2216 1326 1975 
Q 1069 1734 1069 1313 
Q 1069 891 1326 650 
Q 1584 409 2034 409 
Q 2484 409 2743 651 
Q 3003 894 3003 1313 
Q 3003 1734 2745 1975 
Q 2488 2216 2034 2216 
z
M 1403 2484 
Q 997 2584 770 2862 
Q 544 3141 544 3541 
Q 544 4100 942 4425 
Q 1341 4750 2034 4750 
Q 2731 4750 3128 4425 
Q 3525 4100 3525 3541 
Q 3525 3141 3298 2862 
Q 3072 2584 2669 2484 
Q 3125 2378 3379 2068 
Q 3634 1759 3634 1313 
Q 3634 634 3220 271 
Q 2806 -91 2034 -91 
Q 1263 -91 848 271 
Q 434 634 434 1313 
Q 434 1759 690 2068 
Q 947 2378 1403 2484 
z
M 1172 3481 
Q 1172 3119 1398 2916 
Q 1625 2713 2034 2713 
Q 2441 2713 2670 2916 
Q 2900 3119 2900 3481 
Q 2900 3844 2670 4047 
Q 2441 4250 2034 4250 
Q 1625 4250 1398 4047 
Q 1172 3844 1172 3481 
z
" transform="scale(0.015625)"/>
       </defs>
       <use xlink:href="#DejaVuSans-38"/>
      </g>
     </g>
    </g>
    <g id="ytick_6">
     <g id="line2d_23">
      <path d="M 57.6 149.184 
L 414.72 149.184 
" clip-path="url(#p165f65cf81)" style="fill: none; stroke: #b0b0b0; stroke-width: 0.8; stroke-linecap: square"/>
     </g>
     <g id="line2d_24">
      <g>
       <use xlink:href="#mbee817a0dd" x="57.6" y="149.184" style="stroke: #000000; stroke-width: 0.8"/>
      </g>
     </g>
     <g id="text_13">
      <!-- 10 -->
      <g transform="translate(37.875 152.983219) scale(0.1 -0.1)">
       <defs>
        <path id="DejaVuSans-31" d="M 794 531 
L 1825 531 
L 1825 4091 
L 703 3866 
L 703 4441 
L 1819 4666 
L 2450 4666 
L 2450 531 
L 3481 531 
L 3481 0 
L 794 0 
L 794 531 
z
" transform="scale(0.015625)"/>
       </defs>
       <use xlink:href="#DejaVuSans-31"/>
       <use xlink:href="#DejaVuSans-30" x="63.623047"/>
      </g>
     </g>
    </g>
    <g id="ytick_7">
     <g id="line2d_25">
      <path d="M 57.6 117.504 
L 414.72 117.504 
" clip-path="url(#p165f65cf81)" style="fill: none; stroke: #b0b0b0; stroke-width: 0.8; stroke-linecap: square"/>
     </g>
     <g id="line2d_26">
      <g>
       <use xlink:href="#mbee817a0dd" x="57.6" y="117.504" style="stroke: #000000; stroke-width: 0.8"/>
      </g>
     </g>
     <g id="text_14">
      <!-- 12 -->
      <g transform="translate(37.875 121.303219) scale(0.1 -0.1)">
       <use xlink:href="#DejaVuSans-31"/>
       <use xlink:href="#DejaVuSans-32" x="63.623047"/>
      </g>
     </g>
    </g>
    <g id="ytick_8">
     <g id="line2d_27">
      <path d="M 57.6 85.824 
L 414.72 85.824 
" clip-path="url(#p165f65cf81)" style="fill: none; stroke: #b0b0b0; stroke-width: 0.8; stroke-linecap: square"/>
     </g>
     <g id="line2d_28">
      <g>
       <use xlink:href="#mbee817a0dd" x="57.6" y="85.824" style="stroke: #000000; stroke-width: 0.8"/>
      </g>
     </g>
     <g id="text_15">
      <!-- 14 -->
      <g transform="translate(37.875 89.623219) scale(0.1 -0.1)">
       <use xlink:href="#DejaVuSans-31"/>
       <use xlink:href="#DejaVuSans-34" x="63.623047"/>
      </g>
     </g>
    </g>
    <g id="ytick_9">
     <g id="line2d_29">
      <path d="M 57.6 54.144 
L 414.72 54.144 
" clip-path="url(#p165f65cf81)" style="fill: none; stroke: #b0b0b0; stroke-width: 0.8; stroke-linecap: square"/>
     </g>
     <g id="line2d_30">
      <g>
       <use xlink:href="#mbee817a0dd" x="57.6" y="54.144" style="stroke: #000000; stroke-width: 0.8"/>
      </g>
     </g>
     <g id="text_16">
      <!-- 16 -->
      <g transform="translate(37.875 57.943219) scale(0.1 -0.1)">
       <use xlink:href="#DejaVuSans-31"/>
       <use xlink:href="#DejaVuSans-36" x="63.623047"/>
      </g>
     </g>
    </g>
    <g id="text_17">
     <!-- Count -->
     <g transform="translate(31.795312 189.376437) rotate(-90) scale(0.1 -0.1)">
      <defs>
       <path id="DejaVuSans-43" d="M 4122 4306 
L 4122 3641 
Q 3803 3938 3442 4084 
Q 3081 4231 2675 4231 
Q 1875 4231 1450 3742 
Q 1025 3253 1025 2328 
Q 1025 1406 1450 917 
Q 1875 428 2675 428 
Q 3081 428 3442 575 
Q 3803 722 4122 1019 
L 4122 359 
Q 3791 134 3420 21 
Q 3050 -91 2638 -91 
Q 1578 -91 968 557 
Q 359 1206 359 2328 
Q 359 3453 968 4101 
Q 1578 4750 2638 4750 
Q 3056 4750 3426 4639 
Q 3797 4528 4122 4306 
z
" transform="scale(0.015625)"/>
       <path id="DejaVuSans-75" d="M 544 1381 
L 544 3500 
L 1119 3500 
L 1119 1403 
Q 1119 906 1312 657 
Q 1506 409 1894 409 
Q 2359 409 2629 706 
Q 2900 1003 2900 1516 
L 2900 3500 
L 3475 3500 
L 3475 0 
L 2900 0 
L 2900 538 
Q 2691 219 2414 64 
Q 2138 -91 1772 -91 
Q 1169 -91 856 284 
Q 544 659 544 1381 
z
M 1991 3584 
L 1991 3584 
z
" transform="scale(0.015625)"/>
      </defs>
      <use xlink:href="#DejaVuSans-43"/>
      <use xlink:href="#DejaVuSans-6f" x="69.824219"/>
      <use xlink:href="#DejaVuSans-75" x="131.005859"/>
      <use xlink:href="#DejaVuSans-6e" x="194.384766"/>
      <use xlink:href="#DejaVuSans-74" x="257.763672"/>
     </g>
    </g>
   </g>
   <g id="patch_372">
    <path d="M 57.6 307.584 
L 57.6 41.472 
" style="fill: none; stroke: #000000; stroke-width: 0.8; stroke-linejoin: miter; stroke-linecap: square"/>
   </g>
   <g id="patch_373">
    <path d="M 414.72 307.584 
L 414.72 41.472 
" style="fill: none; stroke: #000000; stroke-width: 0.8; stroke-linejoin: miter; stroke-linecap: square"/>
   </g>
   <g id="patch_374">
    <path d="M 57.6 307.584 
L 414.72 307.584 
" style="fill: none; stroke: #000000; stroke-width: 0.8; stroke-linejoin: miter; stroke-linecap: square"/>
   </g>
   <g id="patch_375">
    <path d="M 57.6 41.472 
L 414.72 41.472 
" style="fill: none; stroke: #000000; stroke-width: 0.8; stroke-linejoin: miter; stroke-linecap: square"/>
   </g>
   <g id="text_18">
    <!-- Distribution of QREL Lengths -->
    <g transform="translate(149.805 35.472) scale(0.12 -0.12)">
     <defs>
      <path id="DejaVuSans-44" d="M 1259 4147 
L 1259 519 
L 2022 519 
Q 2988 519 3436 956 
Q 3884 1394 3884 2338 
Q 3884 3275 3436 3711 
Q 2988 4147 2022 4147 
L 1259 4147 
z
M 628 4666 
L 1925 4666 
Q 3281 4666 3915 4102 
Q 4550 3538 4550 2338 
Q 4550 1131 3912 565 
Q 3275 0 1925 0 
L 628 0 
L 628 4666 
z
" transform="scale(0.015625)"/>
      <path id="DejaVuSans-72" d="M 2631 2963 
Q 2534 3019 2420 3045 
Q 2306 3072 2169 3072 
Q 1681 3072 1420 2755 
Q 1159 2438 1159 1844 
L 1159 0 
L 581 0 
L 581 3500 
L 1159 3500 
L 1159 2956 
Q 1341 3275 1631 3429 
Q 1922 3584 2338 3584 
Q 2397 3584 2469 3576 
Q 2541 3569 2628 3553 
L 2631 2963 
z
" transform="scale(0.015625)"/>
      <path id="DejaVuSans-62" d="M 3116 1747 
Q 3116 2381 2855 2742 
Q 2594 3103 2138 3103 
Q 1681 3103 1420 2742 
Q 1159 2381 1159 1747 
Q 1159 1113 1420 752 
Q 1681 391 2138 391 
Q 2594 391 2855 752 
Q 3116 1113 3116 1747 
z
M 1159 2969 
Q 1341 3281 1617 3432 
Q 1894 3584 2278 3584 
Q 2916 3584 3314 3078 
Q 3713 2572 3713 1747 
Q 3713 922 3314 415 
Q 2916 -91 2278 -91 
Q 1894 -91 1617 61 
Q 1341 213 1159 525 
L 1159 0 
L 581 0 
L 581 4863 
L 1159 4863 
L 1159 2969 
z
" transform="scale(0.015625)"/>
     </defs>
     <use xlink:href="#DejaVuSans-44"/>
     <use xlink:href="#DejaVuSans-69" x="77.001953"/>
     <use xlink:href="#DejaVuSans-73" x="104.785156"/>
     <use xlink:href="#DejaVuSans-74" x="156.884766"/>
     <use xlink:href="#DejaVuSans-72" x="196.09375"/>
     <use xlink:href="#DejaVuSans-69" x="237.207031"/>
     <use xlink:href="#DejaVuSans-62" x="264.990234"/>
     <use xlink:href="#DejaVuSans-75" x="328.466797"/>
     <use xlink:href="#DejaVuSans-74" x="391.845703"/>
     <use xlink:href="#DejaVuSans-69" x="431.054688"/>
     <use xlink:href="#DejaVuSans-6f" x="458.837891"/>
     <use xlink:href="#DejaVuSans-6e" x="520.019531"/>
     <use xlink:href="#DejaVuSans-20" x="583.398438"/>
     <use xlink:href="#DejaVuSans-6f" x="615.185547"/>
     <use xlink:href="#DejaVuSans-66" x="676.367188"/>
     <use xlink:href="#DejaVuSans-20" x="711.572266"/>
     <use xlink:href="#DejaVuSans-51" x="743.359375"/>
     <use xlink:href="#DejaVuSans-52" x="822.070312"/>
     <use xlink:href="#DejaVuSans-45" x="891.552734"/>
     <use xlink:href="#DejaVuSans-4c" x="954.736328"/>
     <use xlink:href="#DejaVuSans-20" x="1010.449219"/>
     <use xlink:href="#DejaVuSans-4c" x="1042.236328"/>
     <use xlink:href="#DejaVuSans-65" x="1096.199219"/>
     <use xlink:href="#DejaVuSans-6e" x="1157.722656"/>
     <use xlink:href="#DejaVuSans-67" x="1221.101562"/>
     <use xlink:href="#DejaVuSans-74" x="1284.578125"/>
     <use xlink:href="#DejaVuSans-68" x="1323.787109"/>
     <use xlink:href="#DejaVuSans-73" x="1387.166016"/>
    </g>
   </g>
  </g>
 </g>
 <defs>
  <clipPath id="p165f65cf81">
   <rect x="57.6" y="41.472" width="357.12" height="266.112"/>
  </clipPath>
 </defs>
</svg>
